<svg xmlns="http://www.w3.org/2000/svg" width="80" height="80"><defs><linearGradient id="a" gradientUnits="userSpaceOnUse" x1="316.97" y1="272.12" x2="627.09" y2="272.12" gradientTransform="scale(.08)"><stop offset="0" style="stop-color:#abc834;stop-opacity:1"/><stop offset="1" style="stop-color:#47ae65;stop-opacity:1"/></linearGradient><linearGradient id="b" gradientUnits="userSpaceOnUse" x1="137.49" y1="643.14" x2="434.41" y2="643.14" gradientTransform="scale(.08)"><stop offset="0" style="stop-color:#abc834;stop-opacity:1"/><stop offset="1" style="stop-color:#47ae65;stop-opacity:1"/></linearGradient></defs><path style="stroke:none;fill-rule:nonzero;fill:#e5e5e5;fill-opacity:1" d="M56.719 10.36s-18.203-6.735-30.508-.212C15.35 15.91 9.402 27.18 15.332 38.422c2.11 4.004 4.137 8.652 5.027 13.031.996 4.91.399 9.996 7.594 15.75 7.195 5.758 20.774 6.004 27.317 1.414 6.546-4.594 8.546-14.847 9.843-23.816 1.297-8.969 13.922-25.352-8.394-34.442Zm0 0"/><path style="stroke:none;fill-rule:nonzero;fill:#212121;fill-opacity:1" d="m39.867 28.277 7.899-10.914c2.234-3.531-.774-7.39-5.36-7.394 0 0-5.234-.856-8.504 3.652l-6.308 8.438c-2.676 3.64-2.996 6.718.062 8.015l4.063 1.094c2.437.512 6-.527 8.148-2.89Zm0 0"/><path style="stroke:none;fill-rule:nonzero;fill:url(#a)" d="M25.465 27.031c-.098 1.239.965 2.524 2.191 3.043l4.063 1.094c2.437.508 6-.523 8.148-2.89l7.899-10.915c2.234-3.531-.774-7.39-5.36-7.394 0 0-1.25-.203-2.91.113.082-.05.129-.07.129-.07 9.852-1.309 12.145 5.199 9.555 9.222l-8.172 11.282c-2.192 2.422-6.844 3.558-9.297 3.07L28 32.62c-2.031-.851-2.977-3.375-2.535-5.59Zm0 0"/><path style="stroke:none;fill-rule:nonzero;fill:url(#b)" d="m14.223 44.191 6.093-5.64c-.925 1.277-.699 8.004 3.633 12.902C28 56.031 33.102 58.41 34.754 58.16L30.063 62a10.403 10.403 0 0 1-14.215-.977l-2.075-2.238c-3.867-4.172-3.664-10.672.45-14.594Zm0 0"/><path style="stroke:none;fill-rule:nonzero;fill:#212121;fill-opacity:1" d="M22 38.605c1.02-2.222 2.707-5.19 4.941-6.66.313.282.672.512 1.059.676l3.71.965c2.454.492 7.106-.645 9.298-3.066l8.172-11.282a6.234 6.234 0 0 0 .828-1.949l.137-.168s.96 5.563 4.16 10.149c3.199 4.582 11.425 16.695-3.5 25.668 0 0-13.395 6.214-20.72 1.949-4.616-2.696-7.37-7.285-8.405-10.395a8.034 8.034 0 0 1 .32-5.887Zm0 0"/></svg>