<svg xmlns="http://www.w3.org/2000/svg" width="80" height="80"><defs><linearGradient id="a" gradientUnits="userSpaceOnUse" x1="178.29" y1="685.21" x2="307.17" y2="589.95" gradientTransform="scale(.08)"><stop offset="0" style="stop-color:#abc834;stop-opacity:1"/><stop offset="1" style="stop-color:#47ae65;stop-opacity:1"/></linearGradient><linearGradient id="b" gradientUnits="userSpaceOnUse" x1="335.36" y1="662.63" x2="398.86" y2="610.33" gradientTransform="scale(.08)"><stop offset="0" style="stop-color:#abc834;stop-opacity:1"/><stop offset="1" style="stop-color:#47ae65;stop-opacity:1"/></linearGradient><linearGradient id="c" gradientUnits="userSpaceOnUse" x1="609.57" y1="664.45" x2="674.01" y2="606.55" gradientTransform="scale(.08)"><stop offset="0" style="stop-color:#abc834;stop-opacity:1"/><stop offset="1" style="stop-color:#47ae65;stop-opacity:1"/></linearGradient><linearGradient id="d" gradientUnits="userSpaceOnUse" x1="705.43" y1="688.82" x2="816.57" y2="587.02" gradientTransform="scale(.08)"><stop offset="0" style="stop-color:#abc834;stop-opacity:1"/><stop offset="1" style="stop-color:#47ae65;stop-opacity:1"/></linearGradient><linearGradient id="e" gradientUnits="userSpaceOnUse" x1="433.49" y1="658.29" x2="572.64" y2="618.13" gradientTransform="scale(.08)"><stop offset="0" style="stop-color:#abc834;stop-opacity:1"/><stop offset="1" style="stop-color:#47ae65;stop-opacity:1"/></linearGradient><linearGradient id="f" gradientUnits="userSpaceOnUse" x1="431.79" y1="447.01" x2="604.59" y2="304.45" gradientTransform="scale(.08)"><stop offset="0" style="stop-color:#abc834;stop-opacity:1"/><stop offset="1" style="stop-color:#47ae65;stop-opacity:1"/></linearGradient></defs><path style="stroke:none;fill-rule:nonzero;fill:#ecebeb;fill-opacity:1" d="m71.895 9.91-3.72.078-1.886.032c-.629.015-1.266.011-1.894.015h-.13V9.91l-.011-3.172v-.14h.14l3.75.015c1.25 0 2.5.032 3.75.047h.083v.082c-.008.535-.024 1.07-.04 1.598Zm0 0-.04-1.601c-.015-.528-.03-1.051-.039-1.567l.082.078c-1.253.016-2.503.047-3.753.047l-3.75.012.14-.14-.015 3.167-.125-.125c.617.008 1.234 0 1.851.016l1.863.031ZM67.71 13.906l-3.718.082-1.887.032c-.632.011-1.265.007-1.898.015h-.129v-.129l-.012-3.168v-.144h.141l3.75.02c1.25 0 2.5.03 3.75.046h.082v.074c-.008.54-.023 1.075-.039 1.602Zm0 0-.042-1.601c-.012-.528-.031-1.047-.035-1.567l.078.078c-1.25.016-2.5.047-3.75.047l-3.754.016.14-.14-.011 3.171-.129-.129c.621.008 1.234 0 1.855.016l1.864.031ZM76.078 13.906l-3.715.082-1.89.032c-.63.011-1.262.007-1.895.015h-.125v-.129l-.016-3.168v-.144h.141l3.754.02c1.25 0 2.5.03 3.75.046h.078v.074c-.004.54-.023 1.075-.035 1.602Zm0 0-.039-1.601c-.012-.528-.031-1.047-.035-1.567l.078.078c-1.25.016-2.5.047-3.75.047l-3.75.02.137-.149-.016 3.172-.125-.125c.617.004 1.234 0 1.856.016l1.863.031ZM21.121 13.91l-3.726.078-1.891.035c-.633.012-1.266.008-1.902.016h-.125v-.129l-.016-3.176v-.144h.14l3.758.02c1.254 0 2.508.03 3.762.046h.078v.074c-.004.54-.023 1.079-.035 1.606Zm0 0-.043-1.605c-.012-.528-.031-1.051-.035-1.57l.078.078c-1.25.015-2.504.046-3.758.046l-3.761.02.14-.145-.012 3.176-.128-.129c.617.008 1.234 0 1.855.016l1.867.035ZM15.621 47.68l-3.68.082-1.87.031c-.622.012-1.25.008-1.876.012H8.07v-.125l-.015-3.14v-.142h.14l3.715.02c1.238 0 2.48.031 3.715.047h.082v.074c-.008.531-.027 1.063-.039 1.586Zm0 0-.039-1.586c-.012-.524-.031-1.04-.039-1.555l.082.082c-1.238.012-2.48.043-3.715.043l-3.715.02.14-.141-.015 3.137-.125-.125c.614.004 1.223 0 1.84.015l1.844.032ZM11.477 51.637l-3.68.082-1.871.031c-.621.012-1.25.008-1.88.016h-.124v-.13L3.906 48.5v-.14h.14l3.716.015c1.238 0 2.48.031 3.715.047h.078v.074c-.004.531-.024 1.063-.035 1.586Zm0 0-.04-1.586c-.011-.524-.03-1.04-.039-1.555l.082.082c-1.238.016-2.48.043-3.714.047l-3.72.016.141-.141-.015 3.14-.125-.124c.613.004 1.223 0 1.84.015l1.847.032ZM19.766 51.637l-3.68.082-1.867.031c-.625.012-1.254.008-1.88.016h-.124v-.13l-.016-3.136v-.14h.14l3.716.015c1.238 0 2.48.031 3.715.047h.082v.074c-.008.531-.024 1.063-.04 1.586Zm0 0-.04-1.586c-.011-.524-.03-1.04-.035-1.555l.079.082c-1.239.016-2.48.043-3.715.047l-3.72.016.142-.141-.016 3.14-.125-.124c.613.004 1.223 0 1.84.015l1.847.032Zm0 0"/><path style="stroke:none;fill-rule:nonzero;fill:#777;fill-opacity:1" d="m16.727 53.758 10.085-10.086a.578.578 0 0 1 .813 0 .578.578 0 0 1 0 .812L17.539 54.566a.573.573 0 1 1-.813-.809ZM55.2 43.754l10.085 10.082a.578.578 0 0 1 0 .812.578.578 0 0 1-.812 0L54.39 44.562a.566.566 0 0 1 0-.808.566.566 0 0 1 .808 0Zm0 0"/><path style="stroke:none;fill-rule:nonzero;fill:#777;fill-opacity:1" d="M8.809 12.922h63.05a3.21 3.21 0 0 1 3.211 3.21V46.57a3.21 3.21 0 0 1-3.21 3.211H8.808a3.207 3.207 0 0 1-3.207-3.21V16.132a3.207 3.207 0 0 1 3.207-3.211Zm0 0"/><path style="stroke:none;fill-rule:nonzero;fill:#fff;fill-opacity:1" d="M9.336 15.188h61.996c.914 0 1.656.738 1.656 1.652v29.023c0 .914-.742 1.657-1.656 1.657H9.336a1.657 1.657 0 0 1-1.656-1.657V16.84c0-.914.742-1.652 1.656-1.652Zm0 0"/><path style="stroke:none;fill-rule:nonzero;fill:#dadada;fill-opacity:1" d="m44.34 29.664-5.055-2.926a1.837 1.837 0 0 0-1.832-.004c-.57.328-.922.93-.922 1.586l-.008 5.84a1.825 1.825 0 0 0 .914 1.594 1.835 1.835 0 0 0 1.836.008l5.063-2.918c.57-.324.922-.93.922-1.586s-.352-1.266-.918-1.594Zm0 0"/><path style="stroke:none;fill-rule:nonzero;fill:#111;fill-opacity:1" d="M15.61 44.84h50.35c1.188 0 2.15.96 2.15 2.148v7.543c0 1.188-.962 2.149-2.15 2.149H15.61a2.15 2.15 0 0 1-2.153-2.149v-7.543a2.15 2.15 0 0 1 2.152-2.148Zm0 0"/><path style="stroke:none;fill-rule:nonzero;fill:url(#a)" d="M19.754 49.012a1.749 1.749 0 1 1-1.75 1.75 1.757 1.757 0 0 1 1.75-1.75m0-2.305a4.054 4.054 0 1 0-.002 8.107 4.054 4.054 0 0 0 .002-8.107Zm0 0"/><path style="stroke:none;fill-rule:nonzero;fill:url(#b)" d="M32.02 50.762a2.459 2.459 0 1 1-4.918-.004 2.459 2.459 0 0 1 4.918.004Zm0 0"/><path style="stroke:none;fill-rule:nonzero;fill:url(#c)" d="M53.89 50.762a2.459 2.459 0 1 1-4.917-.004 2.459 2.459 0 0 1 4.918.004Zm0 0"/><path style="stroke:none;fill-rule:nonzero;fill:url(#d)" d="M61.18 49.012a1.749 1.749 0 1 1-1.75 1.75 1.757 1.757 0 0 1 1.75-1.75m0-2.305a4.054 4.054 0 1 0-.003 8.107 4.054 4.054 0 0 0 .003-8.107Zm0 0"/><path style="stroke:none;fill-rule:nonzero;fill:url(#e)" d="M37.188 49.73h7.023a1.195 1.195 0 1 1 0 2.391h-7.023a1.195 1.195 0 1 1 0-2.39Zm0 0"/><path style="stroke:none;fill-rule:nonzero;fill:#111;fill-opacity:1" d="M32.758 39.598a1.3 1.3 0 0 1 1.3 1.297v2.046a1.3 1.3 0 1 1-2.601 0v-2.046a1.3 1.3 0 0 1 1.3-1.297ZM47.91 39.598c.715 0 1.297.582 1.297 1.297v2.046a1.3 1.3 0 1 1-2.598 0v-2.046a1.3 1.3 0 0 1 1.301-1.297Zm0 0"/><path style="stroke:none;fill-rule:nonzero;fill:#111;fill-opacity:1" d="M30.934 19.695h18.804c.938 0 1.696.758 1.696 1.696v18.804c0 .938-.758 1.696-1.696 1.696H30.934a1.694 1.694 0 0 1-1.696-1.696V21.391c0-.938.758-1.696 1.696-1.696Zm0 0"/><path style="stroke:none;fill-rule:nonzero;fill:url(#f)" d="M40.277 27.703a3.325 3.325 0 0 1 3.325 3.328 3.324 3.324 0 1 1-6.649 0 3.325 3.325 0 0 1 3.324-3.328m0-2.64a5.968 5.968 0 0 0-5.968 5.968A5.968 5.968 0 0 0 40.277 37a5.968 5.968 0 0 0 5.97-5.969 5.978 5.978 0 0 0-5.97-5.968Zm0 0"/><path style="fill:none;stroke-width:20;stroke-linecap:round;stroke-linejoin:round;stroke:#777;stroke-opacity:1;stroke-miterlimit:4" d="M114.16 704.004s14.844 48.877 68.506 48.877M68.066 723.535s28.125 80.664 114.6 79.932M911.719 704.785s-14.844 48.926-68.506 48.926M957.813 724.365s-28.125 80.615-114.6 79.932M445.068 803.662s61.23 26.22 123.926 0M427.979 847.998s79.003 44.14 159.814 0M404.346 893.164s100.244 52.979 202.783 0" transform="scale(.08)"/></svg>