<svg xmlns="http://www.w3.org/2000/svg" width="80" height="80"><defs><linearGradient id="a" gradientUnits="userSpaceOnUse" x1="759.85" y1="521.19" x2="819.97" y2="478.25" gradientTransform="rotate(-15.15 41.765 143.386) scale(.08)"><stop offset="0" style="stop-color:#abc834;stop-opacity:1"/><stop offset="1" style="stop-color:#47ae65;stop-opacity:1"/></linearGradient><linearGradient id="b" gradientUnits="userSpaceOnUse" x1="802.21" y1="521.19" x2="862.32" y2="478.25" gradientTransform="rotate(-15.15 41.764 143.387) scale(.08)"><stop offset="0" style="stop-color:#abc834;stop-opacity:1"/><stop offset="1" style="stop-color:#47ae65;stop-opacity:1"/></linearGradient><linearGradient id="c" gradientUnits="userSpaceOnUse" x1="843.89" y1="521.19" x2="904" y2="478.25" gradientTransform="matrix(.0776 -.0208 .0208 .0776 -36.15 15.843)"><stop offset="0" style="stop-color:#abc834;stop-opacity:1"/><stop offset="1" style="stop-color:#47ae65;stop-opacity:1"/></linearGradient><linearGradient id="d" gradientUnits="userSpaceOnUse" x1="677.99" y1="825.99" x2="981.71" y2="546.84" gradientTransform="rotate(-15.15 41.764 143.387) scale(.08)"><stop offset="0" style="stop-color:#abc834;stop-opacity:1"/><stop offset="1" style="stop-color:#47ae65;stop-opacity:1"/></linearGradient><linearGradient id="e" gradientUnits="userSpaceOnUse" x1="1402.15" y1="-540.61" x2="1562.46" y2="-540.61" gradientTransform="rotate(43.72 5.491 -125.977) scale(.08)"><stop offset="0" style="stop-color:#abc834;stop-opacity:1"/><stop offset="1" style="stop-color:#47ae65;stop-opacity:1"/></linearGradient><linearGradient id="f" gradientUnits="userSpaceOnUse" x1="1472.91" y1="-408.17" x2="1490.66" y2="-408.17" gradientTransform="rotate(43.72 5.491 -125.977) scale(.08)"><stop offset="0" style="stop-color:#abc834;stop-opacity:1"/><stop offset="1" style="stop-color:#47ae65;stop-opacity:1"/></linearGradient></defs><path style="stroke:none;fill-rule:nonzero;fill:#c6c6c6;fill-opacity:1" d="M49.059 29.45c-.996-10.11-10.567-18.618-20.72-18.419l-6.288 1.117C12.449 15.477 6.41 26.77 8.977 36.602 11.539 46.43 22.32 53.34 32.32 51.555c10-1.785 17.735-11.996 16.739-22.106Zm0 0"/><path style="stroke:none;fill-rule:nonzero;fill:url(#a)" d="M34.703 36.305h.004a.967.967 0 0 1 1.188.683l.527 1.95a.97.97 0 0 1-.68 1.19h-.004a.968.968 0 0 1-1.187-.683l-.531-1.949a.975.975 0 0 1 .683-1.191Zm0 0"/><path style="stroke:none;fill-rule:nonzero;fill:url(#b)" d="M37.973 35.418h.004a.971.971 0 0 1 1.187.684l.531 1.949a.975.975 0 0 1-.683 1.191h-.004a.967.967 0 0 1-1.188-.683l-.527-1.95a.971.971 0 0 1 .68-1.191Zm0 0"/><path style="stroke:none;fill-rule:nonzero;fill:url(#c)" d="M41.344 34.766a.98.98 0 0 1 1.195.691l.523 1.957a.975.975 0 0 1-1.882.508l-.524-1.961a.975.975 0 0 1 .688-1.195Zm0 0"/><path style="stroke:none;fill-rule:nonzero;fill:#111;fill-opacity:1" d="M77.441 53.785 71.29 33.848c-.922-2.989-4.21-4.672-7.426-3.801L13.207 43.762c-3.184.863-5.172 3.922-4.512 6.949l4.465 20.45c.422 1.944 2.488 3.109 4.535 2.554l4.551-1.235a.645.645 0 0 0 .176.207l1.129.876a.737.737 0 0 0 .758.074l2.023-.973a.703.703 0 0 0 .32-.3l.684-1.262 37.402-10.125 1.223.746c.133.074.281.109.434.097l2.238-.183a.73.73 0 0 0 .62-.446l.532-1.324a.627.627 0 0 0 .047-.265l4.957-1.344c2.035-.551 3.238-2.578 2.652-4.473Zm0 0"/><path style="stroke:none;fill-rule:nonzero;fill:url(#d)" d="M45.32 62.547c-6.02 1.629-12.246-1.942-13.875-7.965-1.633-6.02 1.942-12.242 7.961-13.875 6.024-1.629 12.246 1.941 13.875 7.965 1.625 6.02-1.941 12.242-7.96 13.875Zm-5.183-19.145a8.522 8.522 0 0 0-6 10.45 8.522 8.522 0 0 0 10.449 6c4.543-1.227 7.227-5.907 6-10.45a8.53 8.53 0 0 0-10.45-6Zm0 0"/><path style="stroke:none;fill-rule:evenodd;fill:url(#e)" d="M30.738 5.492c-3.484-.37-6.625 2.235-7.004 5.813-.379 3.578 2.145 6.78 5.63 7.152 3.484.367 6.624-2.234 7.003-5.812.38-3.579-2.144-6.782-5.629-7.153Zm0 0"/><path style="stroke:none;fill-rule:evenodd;fill:#111;fill-opacity:1" d="M9.156 37.719c-.879-.04-3.265-2.403-3.336-3.278-.023-.28 12.508-14.75 17.008-19.793.336-.8.742-2.78.887-2.496 1.41 2.801 3.797 4.934 6.328 6.344.238.133-1.523.602-2.313.906C22.844 24.09 9.156 37.72 9.156 37.72Zm0 0"/><path style="stroke:none;fill-rule:evenodd;fill:url(#f)" d="M22.773 18.902a.705.705 0 1 0-.135 1.404.705.705 0 0 0 .135-1.404Zm0 0"/><path style="fill:none;stroke-width:25;stroke-linecap:round;stroke-linejoin:round;stroke:#111;stroke-opacity:1;stroke-miterlimit:4" d="M243.408 528.467c-32.959-51.074 1.953-109.815 48.438-136.914 53.564-31.201 118.603-35.108 175.732-57.471 70.996-27.832 123.975-77.539 169.238-137.988 33.936-45.362 108.057-102.198 152.198-30.078 32.617 53.271-6.397 116.26-30.81 163.086-17.92 34.326-30.518 76.318-10.255 109.521" transform="scale(.08)"/><path style="stroke:none;fill-rule:nonzero;fill:#777;fill-opacity:1" d="M70.652 26.54a3.248 3.248 0 0 1-3.246-3.243 3.242 3.242 0 1 1 3.246 3.242Zm0-5.2a1.96 1.96 0 1 0 1.957 1.96 1.957 1.957 0 0 0-1.957-1.964ZM55.355 70.887H54.32v-1.043a.641.641 0 0 0-1.28 0v1.043H52a.64.64 0 0 0-.64.636c0 .356.288.641.64.641h1.04v1.04a.641.641 0 0 0 1.28 0v-1.04h1.04a.639.639 0 1 0 0-1.277ZM11.707 12.879h-1.039v-1.04a.641.641 0 0 0-1.281 0v1.04h-1.04a.641.641 0 0 0 0 1.281h1.04v1.04a.641.641 0 0 0 1.281 0v-1.04h1.039a.641.641 0 0 0 0-1.281Zm0 0"/></svg>