<svg xmlns="http://www.w3.org/2000/svg" width="80" height="80"><defs><linearGradient id="a" gradientUnits="userSpaceOnUse" x1="506.96" y1="803.56" x2="1912.95" y2="79.92" gradientTransform="rotate(9.15 83.056 -182.599) scale(.08)"><stop offset="0" style="stop-color:#abc834;stop-opacity:1"/><stop offset="1" style="stop-color:#47ae65;stop-opacity:1"/></linearGradient><linearGradient id="b" gradientUnits="userSpaceOnUse" x1="394.65" y1="477.85" x2="789.82" y2="320.96" gradientTransform="matrix(.08013 .00561 -.00561 .08013 2.92 -2.813)"><stop offset="0" style="stop-color:#abc834;stop-opacity:1"/><stop offset="1" style="stop-color:#47ae65;stop-opacity:1"/></linearGradient></defs><path style="stroke:none;fill-rule:nonzero;fill:#dadada;fill-opacity:1" d="M69.625 38.246c-.25 6.883-2.652 13.856-6.86 19.176a34.65 34.65 0 0 1-4.398 4.621c-5.344 4.664-12.113 7.504-19.015 8.895-6.473 1.3-14.922 2.269-20.899-1.141-3.555-2.031-6.355-5.922-6.48-10.172-.153-5.441 4.496-8.36 6.574-12.887 1.879-4.086 1.14-8.648 1.8-12.98.891-5.86 3.454-11.86 7.97-15.938 6.593-5.953 16.745-7.148 25.03-4.625 11.7 3.563 16.669 14.196 16.278 25.051Zm0 0"/><path style="stroke:none;fill-rule:nonzero;fill:#777;fill-opacity:1" d="M61.973 68.074c.12-.87-1.114-1.59-2.04-1.664-.44-.035-.898.031-1.316-.113-.906-.32-1.27-1.488-2.152-1.86-.66-.277-1.426-.03-2.067.29-.636.324-1.273.73-1.988.777-.62.039-1.3-.192-1.84.11-.406.23-.617.695-.992.972s-.844.328-1.3.352c-.454.027-.923.03-1.337.218-.414.192-.757.625-.671 1.074ZM22.809 12.598c.101-.735-.934-1.34-1.711-1.403-.371-.027-.758.028-1.11-.093-.761-.266-1.062-1.25-1.808-1.563-.555-.234-1.196-.027-1.735.246-.535.27-1.07.61-1.672.649-.52.035-1.09-.16-1.546.097-.34.188-.52.582-.836.813-.313.234-.707.277-1.09.297-.383.02-.778.023-1.125.183-.348.16-.633.528-.559.903ZM75.98 16.203c.215-1.562-1.988-2.844-3.644-2.976-.79-.067-1.61.054-2.356-.207-1.62-.563-2.27-2.657-3.851-3.325-1.18-.496-2.54-.054-3.688.524-1.144.574-2.28 1.3-3.562 1.383-1.113.07-2.32-.344-3.297.199-.727.406-1.105 1.242-1.773 1.738-.657.48-1.512.586-2.32.629-.813.043-1.657.05-2.395.39-.739.34-1.352 1.122-1.2 1.919ZM21.688 61.074c.12-.883-1.13-1.61-2.067-1.687-.445-.035-.91.035-1.336-.114-.918-.32-1.285-1.507-2.18-1.882-.668-.286-1.44-.032-2.09.293-.648.328-1.288.738-2.015.785-.633.039-1.316-.196-1.867.113-.41.23-.63.707-1.008.984-.379.278-.855.332-1.313.356-.46.027-.937.031-1.359.223-.426.19-.766.636-.68 1.085Zm0 0"/><path style="stroke:none;fill-rule:nonzero;fill:#111;fill-opacity:1" d="M12.59 48.559s20.379 9.3 53.988 8.695l2.543-19.484-3.281-3.043s-24.977-7.856-44.586-7.18L13.55 35.16Zm0 0"/><path style="stroke:none;fill-rule:nonzero;fill:url(#a)" d="M73.168 41.086c-.012-2.809-1.332-5.254-3.207-7.273-1.98-2.13-4.414-4.192-6.95-5.618a40.52 40.52 0 0 0-4.995-2.363 47.422 47.422 0 0 0-5.032-1.668c-1.699-.46-3.414-.777-5.148-1.078-1.719-.297-3.441-.57-5.164-.848-.879-.144-1.77-.281-2.652-.402-.868-.117-1.75-.16-2.61-.297a47.624 47.624 0 0 0-6.8-.121 40.998 40.998 0 0 0-5.485.676c-5.25 1.027-11.813 3.484-13.676 9.004-.972 2.89-2.047 7.3-2.508 13.5-.183 2.441 1.82 4.511 4.258 4.37l.153-.007s1.457-15.059 8.93-20.633c2.695-2.012 5.988-3.152 9.327-3.406 1.746-.133 3.496-.012 5.227.215 1.687.222 12.16 1.902 15.703 2.578 1.148.219 2.344.664 3.418 1.129 3.098 1.289 5.863 3.406 7.793 6.16 5.344 7.637 2 22.39 2 22.39l.14.06c2.274.898 4.825-.442 5.419-2.813 1.504-5.996 1.875-10.504 1.859-13.555Zm0 0"/><path style="stroke:none;fill-rule:nonzero;fill:url(#b)" d="m41.129 33.246 2.906.469a.742.742 0 1 1-.234 1.465l-2.91-.47a.743.743 0 0 1 .238-1.464Zm0 0"/></svg>