<svg xmlns="http://www.w3.org/2000/svg" width="80" height="80"><defs><linearGradient id="a" gradientUnits="userSpaceOnUse" x1="-2776.18" y1="1003.39" x2="-2642.27" y2="1003.39" gradientTransform="matrix(.076 .024 -.024 .076 270.949 54.53)"><stop offset="0" style="stop-color:#abc834;stop-opacity:1"/><stop offset="1" style="stop-color:#47ae65;stop-opacity:1"/></linearGradient><linearGradient id="ba" gradientUnits="userSpaceOnUse" x1="814.78" y1="315.7" x2="872.72" y2="257.76" gradientTransform="scale(.08)"><stop offset="0" style="stop-color:#abc834;stop-opacity:1"/><stop offset="1" style="stop-color:#47ae65;stop-opacity:1"/></linearGradient><linearGradient id="aZ" gradientUnits="userSpaceOnUse" x1="103.57" y1="342.75" x2="231.83" y2="214.49" gradientTransform="scale(.08)"><stop offset="0" style="stop-color:#abc834;stop-opacity:1"/><stop offset="1" style="stop-color:#47ae65;stop-opacity:1"/></linearGradient><linearGradient id="d" gradientUnits="userSpaceOnUse" x1="-2784.48" y1="1007.08" x2="-2642.27" y2="1007.08" gradientTransform="rotate(17.38 -42.859 913.617) scale(.08)"><stop offset="0" style="stop-color:#abc834;stop-opacity:1"/><stop offset="1" style="stop-color:#47ae65;stop-opacity:1"/></linearGradient><linearGradient id="e" gradientUnits="userSpaceOnUse" x1="-2776.63" y1="1000.42" x2="-2640.13" y2="1000.42" gradientTransform="matrix(.076 .024 -.024 .076 270.949 54.53)"><stop offset="0" style="stop-color:#abc834;stop-opacity:1"/><stop offset="1" style="stop-color:#47ae65;stop-opacity:1"/></linearGradient><linearGradient id="f" gradientUnits="userSpaceOnUse" x1="-2775.54" y1="1000.35" x2="-2633.91" y2="1000.35" gradientTransform="matrix(.076 .024 -.024 .076 270.949 54.53)"><stop offset="0" style="stop-color:#abc834;stop-opacity:1"/><stop offset="1" style="stop-color:#47ae65;stop-opacity:1"/></linearGradient><linearGradient id="g" gradientUnits="userSpaceOnUse" x1="-2774.45" y1="1000.29" x2="-2630.31" y2="1000.29" gradientTransform="matrix(.076 .024 -.024 .076 270.949 54.53)"><stop offset="0" style="stop-color:#abc834;stop-opacity:1"/><stop offset="1" style="stop-color:#47ae65;stop-opacity:1"/></linearGradient><linearGradient id="h" gradientUnits="userSpaceOnUse" x1="-2773.36" y1="1000.22" x2="-2631.37" y2="1000.22" gradientTransform="matrix(.076 .024 -.024 .076 270.949 54.53)"><stop offset="0" style="stop-color:#abc834;stop-opacity:1"/><stop offset="1" style="stop-color:#47ae65;stop-opacity:1"/></linearGradient><linearGradient id="i" gradientUnits="userSpaceOnUse" x1="-2772.27" y1="1000.15" x2="-2632.43" y2="1000.15" gradientTransform="matrix(.076 .024 -.024 .076 270.949 54.53)"><stop offset="0" style="stop-color:#abc834;stop-opacity:1"/><stop offset="1" style="stop-color:#47ae65;stop-opacity:1"/></linearGradient><linearGradient id="j" gradientUnits="userSpaceOnUse" x1="-2771.18" y1="996.53" x2="-2633.49" y2="996.53" gradientTransform="matrix(.076 .024 -.024 .076 270.949 54.53)"><stop offset="0" style="stop-color:#abc834;stop-opacity:1"/><stop offset="1" style="stop-color:#47ae65;stop-opacity:1"/></linearGradient><linearGradient id="k" gradientUnits="userSpaceOnUse" x1="-2770.09" y1="996.52" x2="-2632.7" y2="996.52" gradientTransform="matrix(.076 .024 -.024 .076 270.949 54.53)"><stop offset="0" style="stop-color:#abc834;stop-opacity:1"/><stop offset="1" style="stop-color:#47ae65;stop-opacity:1"/></linearGradient><linearGradient id="l" gradientUnits="userSpaceOnUse" x1="-2769" y1="996.51" x2="-2633.79" y2="996.51" gradientTransform="matrix(.076 .024 -.024 .076 270.949 54.53)"><stop offset="0" style="stop-color:#abc834;stop-opacity:1"/><stop offset="1" style="stop-color:#47ae65;stop-opacity:1"/></linearGradient><linearGradient id="aY" gradientUnits="userSpaceOnUse" x1="309.83" y1="-485.08" x2="393.71" y2="-568.96" gradientTransform="rotate(19.82 -244.193 -39.313) scale(.08)"><stop offset="0" style="stop-color:#abc834;stop-opacity:1"/><stop offset="1" style="stop-color:#47ae65;stop-opacity:1"/></linearGradient><linearGradient id="aX" gradientUnits="userSpaceOnUse" x1="330.11" y1="-660.65" x2="434.58" y2="-394.89" gradientTransform="rotate(19.82 -244.193 -39.313) scale(.08)"><stop offset="0" style="stop-color:#abc834;stop-opacity:1"/><stop offset="1" style="stop-color:#47ae65;stop-opacity:1"/></linearGradient><linearGradient id="o" gradientUnits="userSpaceOnUse" x1="-2767.91" y1="996.5" x2="-2634.88" y2="996.5" gradientTransform="matrix(.076 .024 -.024 .076 270.949 54.53)"><stop offset="0" style="stop-color:#abc834;stop-opacity:1"/><stop offset="1" style="stop-color:#47ae65;stop-opacity:1"/></linearGradient><linearGradient id="p" gradientUnits="userSpaceOnUse" x1="-2766.82" y1="996.49" x2="-2635.97" y2="996.49" gradientTransform="matrix(.076 .024 -.024 .076 270.949 54.53)"><stop offset="0" style="stop-color:#abc834;stop-opacity:1"/><stop offset="1" style="stop-color:#47ae65;stop-opacity:1"/></linearGradient><linearGradient id="q" gradientUnits="userSpaceOnUse" x1="-2765.73" y1="996.48" x2="-2637.06" y2="996.48" gradientTransform="matrix(.076 .024 -.024 .076 270.949 54.53)"><stop offset="0" style="stop-color:#abc834;stop-opacity:1"/><stop offset="1" style="stop-color:#47ae65;stop-opacity:1"/></linearGradient><linearGradient id="r" gradientUnits="userSpaceOnUse" x1="-2764.63" y1="996.47" x2="-2638.15" y2="996.47" gradientTransform="matrix(.076 .024 -.024 .076 270.949 54.53)"><stop offset="0" style="stop-color:#abc834;stop-opacity:1"/><stop offset="1" style="stop-color:#47ae65;stop-opacity:1"/></linearGradient><linearGradient id="aW" gradientUnits="userSpaceOnUse" x1="240.11" y1="1719.78" x2="359.71" y2="1600.18" gradientTransform="rotate(-19.03 -199.582 -39.78) scale(.08)"><stop offset="0" style="stop-color:#abc834;stop-opacity:1"/><stop offset="1" style="stop-color:#47ae65;stop-opacity:1"/></linearGradient><linearGradient id="aV" gradientUnits="userSpaceOnUse" x1="313.57" y1="1513.7" x2="221.55" y2="1796.62" gradientTransform="rotate(-19.03 -199.582 -39.78) scale(.08)"><stop offset="0" style="stop-color:#abc834;stop-opacity:1"/><stop offset="1" style="stop-color:#47ae65;stop-opacity:1"/></linearGradient><linearGradient id="u" gradientUnits="userSpaceOnUse" x1="-2763.54" y1="996.46" x2="-2639.24" y2="996.46" gradientTransform="matrix(.076 .024 -.024 .076 270.949 54.53)"><stop offset="0" style="stop-color:#abc834;stop-opacity:1"/><stop offset="1" style="stop-color:#47ae65;stop-opacity:1"/></linearGradient><linearGradient id="v" gradientUnits="userSpaceOnUse" x1="-2762.45" y1="996.44" x2="-2640.33" y2="996.44" gradientTransform="matrix(.076 .024 -.024 .076 270.949 54.53)"><stop offset="0" style="stop-color:#abc834;stop-opacity:1"/><stop offset="1" style="stop-color:#47ae65;stop-opacity:1"/></linearGradient><linearGradient id="w" gradientUnits="userSpaceOnUse" x1="-2761.36" y1="996.43" x2="-2641.42" y2="996.43" gradientTransform="matrix(.076 .024 -.024 .076 270.949 54.53)"><stop offset="0" style="stop-color:#abc834;stop-opacity:1"/><stop offset="1" style="stop-color:#47ae65;stop-opacity:1"/></linearGradient><linearGradient id="x" gradientUnits="userSpaceOnUse" x1="-2760.27" y1="995.83" x2="-2642.51" y2="995.83" gradientTransform="rotate(17.38 -42.863 913.631) scale(.08)"><stop offset="0" style="stop-color:#abc834;stop-opacity:1"/><stop offset="1" style="stop-color:#47ae65;stop-opacity:1"/></linearGradient><linearGradient id="y" gradientUnits="userSpaceOnUse" x1="-2759.18" y1="995.83" x2="-2643.6" y2="995.83" gradientTransform="rotate(17.38 -42.863 913.631) scale(.08)"><stop offset="0" style="stop-color:#abc834;stop-opacity:1"/><stop offset="1" style="stop-color:#47ae65;stop-opacity:1"/></linearGradient><linearGradient id="z" gradientUnits="userSpaceOnUse" x1="-2758.09" y1="995.83" x2="-2644.69" y2="995.83" gradientTransform="rotate(17.38 -42.866 913.632) scale(.08)"><stop offset="0" style="stop-color:#abc834;stop-opacity:1"/><stop offset="1" style="stop-color:#47ae65;stop-opacity:1"/></linearGradient><linearGradient id="aU" gradientUnits="userSpaceOnUse" x1="-2702.48" y1="995.83" x2="-2700.3" y2="995.83" gradientTransform="matrix(.076 .024 -.024 .076 270.949 54.53)"><stop offset="0" style="stop-color:#abc834;stop-opacity:1"/><stop offset="1" style="stop-color:#47ae65;stop-opacity:1"/></linearGradient><linearGradient id="aT" gradientUnits="userSpaceOnUse" x1="-2703.57" y1="995.83" x2="-2699.21" y2="995.83" gradientTransform="matrix(.076 .024 -.024 .076 270.949 54.53)"><stop offset="0" style="stop-color:#abc834;stop-opacity:1"/><stop offset="1" style="stop-color:#47ae65;stop-opacity:1"/></linearGradient><linearGradient id="C" gradientUnits="userSpaceOnUse" x1="-2757" y1="995.83" x2="-2645.78" y2="995.83" gradientTransform="rotate(17.38 -42.866 913.632) scale(.08)"><stop offset="0" style="stop-color:#abc834;stop-opacity:1"/><stop offset="1" style="stop-color:#47ae65;stop-opacity:1"/></linearGradient><linearGradient id="D" gradientUnits="userSpaceOnUse" x1="-2755.91" y1="995.83" x2="-2646.87" y2="995.83" gradientTransform="rotate(17.38 -42.863 913.631) scale(.08)"><stop offset="0" style="stop-color:#abc834;stop-opacity:1"/><stop offset="1" style="stop-color:#47ae65;stop-opacity:1"/></linearGradient><linearGradient id="E" gradientUnits="userSpaceOnUse" x1="-2754.82" y1="995.83" x2="-2647.96" y2="995.83" gradientTransform="rotate(17.38 -42.866 913.632) scale(.08)"><stop offset="0" style="stop-color:#abc834;stop-opacity:1"/><stop offset="1" style="stop-color:#47ae65;stop-opacity:1"/></linearGradient><linearGradient id="F" gradientUnits="userSpaceOnUse" x1="-2753.73" y1="995.83" x2="-2649.05" y2="995.83" gradientTransform="rotate(17.38 -42.866 913.632) scale(.08)"><stop offset="0" style="stop-color:#abc834;stop-opacity:1"/><stop offset="1" style="stop-color:#47ae65;stop-opacity:1"/></linearGradient><linearGradient id="G" gradientUnits="userSpaceOnUse" x1="-2752.64" y1="995.83" x2="-2650.14" y2="995.83" gradientTransform="rotate(17.38 -42.863 913.631) scale(.08)"><stop offset="0" style="stop-color:#abc834;stop-opacity:1"/><stop offset="1" style="stop-color:#47ae65;stop-opacity:1"/></linearGradient><linearGradient id="H" gradientUnits="userSpaceOnUse" x1="-2751.55" y1="995.83" x2="-2651.23" y2="995.83" gradientTransform="matrix(.076 .024 -.024 .076 270.949 54.53)"><stop offset="0" style="stop-color:#abc834;stop-opacity:1"/><stop offset="1" style="stop-color:#47ae65;stop-opacity:1"/></linearGradient><linearGradient id="I" gradientUnits="userSpaceOnUse" x1="-2750.46" y1="995.83" x2="-2652.33" y2="995.83" gradientTransform="rotate(17.38 -42.866 913.632) scale(.08)"><stop offset="0" style="stop-color:#abc834;stop-opacity:1"/><stop offset="1" style="stop-color:#47ae65;stop-opacity:1"/></linearGradient><linearGradient id="J" gradientUnits="userSpaceOnUse" x1="-2749.37" y1="995.83" x2="-2653.42" y2="995.83" gradientTransform="matrix(.076 .024 -.024 .076 270.949 54.53)"><stop offset="0" style="stop-color:#abc834;stop-opacity:1"/><stop offset="1" style="stop-color:#47ae65;stop-opacity:1"/></linearGradient><linearGradient id="K" gradientUnits="userSpaceOnUse" x1="-2748.28" y1="995.83" x2="-2654.51" y2="995.83" gradientTransform="rotate(17.38 -42.86 913.631) scale(.08)"><stop offset="0" style="stop-color:#abc834;stop-opacity:1"/><stop offset="1" style="stop-color:#47ae65;stop-opacity:1"/></linearGradient><linearGradient id="aS" gradientUnits="userSpaceOnUse" x1="-2704.66" y1="995.83" x2="-2698.12" y2="995.83" gradientTransform="matrix(.076 .024 -.024 .076 270.949 54.53)"><stop offset="0" style="stop-color:#abc834;stop-opacity:1"/><stop offset="1" style="stop-color:#47ae65;stop-opacity:1"/></linearGradient><linearGradient id="aR" gradientUnits="userSpaceOnUse" x1="-2705.75" y1="995.83" x2="-2697.03" y2="995.83" gradientTransform="matrix(.076 .024 -.024 .076 270.949 54.53)"><stop offset="0" style="stop-color:#abc834;stop-opacity:1"/><stop offset="1" style="stop-color:#47ae65;stop-opacity:1"/></linearGradient><linearGradient id="N" gradientUnits="userSpaceOnUse" x1="-2747.19" y1="995.83" x2="-2655.6" y2="995.83" gradientTransform="rotate(17.38 -42.863 913.631) scale(.08)"><stop offset="0" style="stop-color:#abc834;stop-opacity:1"/><stop offset="1" style="stop-color:#47ae65;stop-opacity:1"/></linearGradient><linearGradient id="aQ" gradientUnits="userSpaceOnUse" x1="-2706.84" y1="995.83" x2="-2695.94" y2="995.83" gradientTransform="matrix(.076 .024 -.024 .076 270.949 54.53)"><stop offset="0" style="stop-color:#abc834;stop-opacity:1"/><stop offset="1" style="stop-color:#47ae65;stop-opacity:1"/></linearGradient><linearGradient id="aP" gradientUnits="userSpaceOnUse" x1="-2707.93" y1="995.83" x2="-2694.85" y2="995.83" gradientTransform="matrix(.076 .024 -.024 .076 270.949 54.53)"><stop offset="0" style="stop-color:#abc834;stop-opacity:1"/><stop offset="1" style="stop-color:#47ae65;stop-opacity:1"/></linearGradient><linearGradient id="Q" gradientUnits="userSpaceOnUse" x1="-2746.1" y1="995.83" x2="-2656.69" y2="995.83" gradientTransform="rotate(17.218 -41.845 920.46) scale(.07986)"><stop offset="0" style="stop-color:#abc834;stop-opacity:1"/><stop offset="1" style="stop-color:#47ae65;stop-opacity:1"/></linearGradient><linearGradient id="R" gradientUnits="userSpaceOnUse" x1="-2745.01" y1="995.83" x2="-2657.78" y2="995.83" gradientTransform="rotate(17.38 -42.866 913.632) scale(.08)"><stop offset="0" style="stop-color:#abc834;stop-opacity:1"/><stop offset="1" style="stop-color:#47ae65;stop-opacity:1"/></linearGradient><linearGradient id="S" gradientUnits="userSpaceOnUse" x1="-2743.92" y1="995.83" x2="-2658.87" y2="995.83" gradientTransform="rotate(17.38 -42.863 913.631) scale(.08)"><stop offset="0" style="stop-color:#abc834;stop-opacity:1"/><stop offset="1" style="stop-color:#47ae65;stop-opacity:1"/></linearGradient><linearGradient id="T" gradientUnits="userSpaceOnUse" x1="-2742.83" y1="995.83" x2="-2659.96" y2="995.83" gradientTransform="rotate(17.292 -43.806 917.973) scale(.07981)"><stop offset="0" style="stop-color:#abc834;stop-opacity:1"/><stop offset="1" style="stop-color:#47ae65;stop-opacity:1"/></linearGradient><linearGradient id="U" gradientUnits="userSpaceOnUse" x1="-2741.74" y1="995.83" x2="-2661.05" y2="995.83" gradientTransform="rotate(17.38 -42.863 913.631) scale(.08)"><stop offset="0" style="stop-color:#abc834;stop-opacity:1"/><stop offset="1" style="stop-color:#47ae65;stop-opacity:1"/></linearGradient><linearGradient id="V" gradientUnits="userSpaceOnUse" x1="-2740.65" y1="995.83" x2="-2662.14" y2="995.83" gradientTransform="rotate(17.38 -42.866 913.632) scale(.08)"><stop offset="0" style="stop-color:#abc834;stop-opacity:1"/><stop offset="1" style="stop-color:#47ae65;stop-opacity:1"/></linearGradient><linearGradient id="W" gradientUnits="userSpaceOnUse" x1="-2739.56" y1="995.83" x2="-2663.23" y2="995.83" gradientTransform="rotate(17.38 -42.863 913.631) scale(.08)"><stop offset="0" style="stop-color:#abc834;stop-opacity:1"/><stop offset="1" style="stop-color:#47ae65;stop-opacity:1"/></linearGradient><linearGradient id="X" gradientUnits="userSpaceOnUse" x1="-2738.47" y1="995.83" x2="-2664.32" y2="995.83" gradientTransform="matrix(.076 .024 -.024 .076 270.949 54.53)"><stop offset="0" style="stop-color:#abc834;stop-opacity:1"/><stop offset="1" style="stop-color:#47ae65;stop-opacity:1"/></linearGradient><linearGradient id="Y" gradientUnits="userSpaceOnUse" x1="-2737.38" y1="995.83" x2="-2665.41" y2="995.83" gradientTransform="matrix(.076 .024 -.024 .076 270.949 54.53)"><stop offset="0" style="stop-color:#abc834;stop-opacity:1"/><stop offset="1" style="stop-color:#47ae65;stop-opacity:1"/></linearGradient><linearGradient id="aO" gradientUnits="userSpaceOnUse" x1="-2709.03" y1="995.83" x2="-2693.76" y2="995.83" gradientTransform="matrix(.076 .024 -.024 .076 270.949 54.53)"><stop offset="0" style="stop-color:#abc834;stop-opacity:1"/><stop offset="1" style="stop-color:#47ae65;stop-opacity:1"/></linearGradient><linearGradient id="aN" gradientUnits="userSpaceOnUse" x1="-2710.12" y1="995.83" x2="-2692.67" y2="995.83" gradientTransform="matrix(.076 .024 -.024 .076 270.949 54.53)"><stop offset="0" style="stop-color:#abc834;stop-opacity:1"/><stop offset="1" style="stop-color:#47ae65;stop-opacity:1"/></linearGradient><linearGradient id="ab" gradientUnits="userSpaceOnUse" x1="-2736.28" y1="995.83" x2="-2666.5" y2="995.83" gradientTransform="matrix(.076 .024 -.024 .076 270.949 54.53)"><stop offset="0" style="stop-color:#abc834;stop-opacity:1"/><stop offset="1" style="stop-color:#47ae65;stop-opacity:1"/></linearGradient><linearGradient id="ac" gradientUnits="userSpaceOnUse" x1="-2735.19" y1="995.83" x2="-2667.59" y2="995.83" gradientTransform="matrix(.076 .024 -.024 .076 270.949 54.53)"><stop offset="0" style="stop-color:#abc834;stop-opacity:1"/><stop offset="1" style="stop-color:#47ae65;stop-opacity:1"/></linearGradient><linearGradient id="aM" gradientUnits="userSpaceOnUse" x1="-2711.21" y1="995.83" x2="-2691.58" y2="995.83" gradientTransform="matrix(.076 .024 -.024 .076 270.949 54.53)"><stop offset="0" style="stop-color:#abc834;stop-opacity:1"/><stop offset="1" style="stop-color:#47ae65;stop-opacity:1"/></linearGradient><linearGradient id="aJ" gradientUnits="userSpaceOnUse" x1="-2712.3" y1="995.83" x2="-2690.49" y2="995.83" gradientTransform="matrix(.076 .024 -.024 .076 270.949 54.53)"><stop offset="0" style="stop-color:#abc834;stop-opacity:1"/><stop offset="1" style="stop-color:#47ae65;stop-opacity:1"/></linearGradient><linearGradient id="af" gradientUnits="userSpaceOnUse" x1="-2734.1" y1="995.83" x2="-2668.68" y2="995.83" gradientTransform="matrix(.076 .024 -.024 .076 270.949 54.53)"><stop offset="0" style="stop-color:#abc834;stop-opacity:1"/><stop offset="1" style="stop-color:#47ae65;stop-opacity:1"/></linearGradient><linearGradient id="aI" gradientUnits="userSpaceOnUse" x1="-2713.39" y1="995.83" x2="-2689.4" y2="995.83" gradientTransform="matrix(.076 .024 -.024 .076 270.949 54.53)"><stop offset="0" style="stop-color:#abc834;stop-opacity:1"/><stop offset="1" style="stop-color:#47ae65;stop-opacity:1"/></linearGradient><linearGradient id="aF" gradientUnits="userSpaceOnUse" x1="-2714.48" y1="995.83" x2="-2688.31" y2="995.83" gradientTransform="matrix(.076 .024 -.024 .076 270.949 54.53)"><stop offset="0" style="stop-color:#abc834;stop-opacity:1"/><stop offset="1" style="stop-color:#47ae65;stop-opacity:1"/></linearGradient><linearGradient id="ai" gradientUnits="userSpaceOnUse" x1="-2733.01" y1="995.83" x2="-2669.77" y2="995.83" gradientTransform="rotate(17.218 -41.845 920.46) scale(.07986)"><stop offset="0" style="stop-color:#abc834;stop-opacity:1"/><stop offset="1" style="stop-color:#47ae65;stop-opacity:1"/></linearGradient><linearGradient id="aE" gradientUnits="userSpaceOnUse" x1="-2715.57" y1="995.83" x2="-2687.22" y2="995.83" gradientTransform="matrix(.076 .024 -.024 .076 270.949 54.53)"><stop offset="0" style="stop-color:#abc834;stop-opacity:1"/><stop offset="1" style="stop-color:#47ae65;stop-opacity:1"/></linearGradient><linearGradient id="aD" gradientUnits="userSpaceOnUse" x1="-2716.66" y1="995.83" x2="-2686.13" y2="995.83" gradientTransform="matrix(.076 .024 -.024 .076 270.949 54.53)"><stop offset="0" style="stop-color:#abc834;stop-opacity:1"/><stop offset="1" style="stop-color:#47ae65;stop-opacity:1"/></linearGradient><linearGradient id="al" gradientUnits="userSpaceOnUse" x1="-2731.92" y1="995.83" x2="-2670.86" y2="995.83" gradientTransform="rotate(17.38 -42.866 913.632) scale(.08)"><stop offset="0" style="stop-color:#abc834;stop-opacity:1"/><stop offset="1" style="stop-color:#47ae65;stop-opacity:1"/></linearGradient><linearGradient id="am" gradientUnits="userSpaceOnUse" x1="-2730.83" y1="995.83" x2="-2671.95" y2="995.83" gradientTransform="rotate(17.38 -42.86 913.631) scale(.08)"><stop offset="0" style="stop-color:#abc834;stop-opacity:1"/><stop offset="1" style="stop-color:#47ae65;stop-opacity:1"/></linearGradient><linearGradient id="an" gradientUnits="userSpaceOnUse" x1="-2729.74" y1="995.83" x2="-2673.04" y2="995.83" gradientTransform="rotate(17.38 -42.86 913.631) scale(.08)"><stop offset="0" style="stop-color:#abc834;stop-opacity:1"/><stop offset="1" style="stop-color:#47ae65;stop-opacity:1"/></linearGradient><linearGradient id="ao" gradientUnits="userSpaceOnUse" x1="-2728.65" y1="995.83" x2="-2674.13" y2="995.83" gradientTransform="matrix(.076 .024 -.024 .076 270.949 54.53)"><stop offset="0" style="stop-color:#abc834;stop-opacity:1"/><stop offset="1" style="stop-color:#47ae65;stop-opacity:1"/></linearGradient><linearGradient id="ap" gradientUnits="userSpaceOnUse" x1="-2727.56" y1="995.83" x2="-2675.22" y2="995.83" gradientTransform="matrix(.076 .024 -.024 .076 270.949 54.53)"><stop offset="0" style="stop-color:#abc834;stop-opacity:1"/><stop offset="1" style="stop-color:#47ae65;stop-opacity:1"/></linearGradient><linearGradient id="aq" gradientUnits="userSpaceOnUse" x1="-2726.47" y1="995.83" x2="-2676.31" y2="995.83" gradientTransform="rotate(17.38 -42.86 913.631) scale(.08)"><stop offset="0" style="stop-color:#abc834;stop-opacity:1"/><stop offset="1" style="stop-color:#47ae65;stop-opacity:1"/></linearGradient><linearGradient id="ar" gradientUnits="userSpaceOnUse" x1="-2725.38" y1="995.83" x2="-2677.4" y2="995.83" gradientTransform="rotate(17.38 -42.86 913.631) scale(.08)"><stop offset="0" style="stop-color:#abc834;stop-opacity:1"/><stop offset="1" style="stop-color:#47ae65;stop-opacity:1"/></linearGradient><linearGradient id="aC" gradientUnits="userSpaceOnUse" x1="-2717.75" y1="995.83" x2="-2685.04" y2="995.83" gradientTransform="matrix(.076 .024 -.024 .076 270.949 54.53)"><stop offset="0" style="stop-color:#abc834;stop-opacity:1"/><stop offset="1" style="stop-color:#47ae65;stop-opacity:1"/></linearGradient><linearGradient id="aB" gradientUnits="userSpaceOnUse" x1="-2718.84" y1="995.83" x2="-2683.95" y2="995.83" gradientTransform="matrix(.076 .024 -.024 .076 270.949 54.53)"><stop offset="0" style="stop-color:#abc834;stop-opacity:1"/><stop offset="1" style="stop-color:#47ae65;stop-opacity:1"/></linearGradient><linearGradient id="au" gradientUnits="userSpaceOnUse" x1="-2724.29" y1="995.83" x2="-2678.49" y2="995.83" gradientTransform="matrix(.076 .024 -.024 .076 270.949 54.53)"><stop offset="0" style="stop-color:#abc834;stop-opacity:1"/><stop offset="1" style="stop-color:#47ae65;stop-opacity:1"/></linearGradient><linearGradient id="av" gradientUnits="userSpaceOnUse" x1="-2723.2" y1="995.83" x2="-2679.58" y2="995.83" gradientTransform="matrix(.076 .024 -.024 .076 270.949 54.53)"><stop offset="0" style="stop-color:#abc834;stop-opacity:1"/><stop offset="1" style="stop-color:#47ae65;stop-opacity:1"/></linearGradient><linearGradient id="aA" gradientUnits="userSpaceOnUse" x1="-2719.93" y1="995.83" x2="-2682.86" y2="995.83" gradientTransform="matrix(.076 .024 -.024 .076 270.949 54.53)"><stop offset="0" style="stop-color:#abc834;stop-opacity:1"/><stop offset="1" style="stop-color:#47ae65;stop-opacity:1"/></linearGradient><linearGradient id="az" gradientUnits="userSpaceOnUse" x1="-2721.02" y1="995.83" x2="-2681.77" y2="995.83" gradientTransform="matrix(.076 .024 -.024 .076 270.949 54.53)"><stop offset="0" style="stop-color:#abc834;stop-opacity:1"/><stop offset="1" style="stop-color:#47ae65;stop-opacity:1"/></linearGradient><linearGradient id="ay" gradientUnits="userSpaceOnUse" x1="-2722.11" y1="995.83" x2="-2680.68" y2="995.83" gradientTransform="matrix(.076 .024 -.024 .076 270.949 54.53)"><stop offset="0" style="stop-color:#abc834;stop-opacity:1"/><stop offset="1" style="stop-color:#47ae65;stop-opacity:1"/></linearGradient><clipPath id="b"><path d="M34 64h12v5H34Zm0 0"/></clipPath><clipPath id="ax"><path d="M43.543 68.164s-8.875.258-9.25-.914c-.379-1.172 8.344-2.715 9.258-2.676.918.04 2.258 1.594 2.258 1.594a6.585 6.585 0 0 0-2.266 1.996Zm0 0"/></clipPath><clipPath id="at"><path d="M43.543 68.164s-8.875.258-9.25-.914c-.379-1.172 8.344-2.715 9.258-2.676.918.04 2.258 1.594 2.258 1.594a6.585 6.585 0 0 0-2.266 1.996Zm0 0"/></clipPath><clipPath id="as"><path d="M38 65h5v2h-5Zm0 0"/></clipPath><clipPath id="ak"><path d="M43.543 68.164s-8.875.258-9.25-.914c-.379-1.172 8.344-2.715 9.258-2.676.918.04 2.258 1.594 2.258 1.594a6.585 6.585 0 0 0-2.266 1.996Zm0 0"/></clipPath><clipPath id="aj"><path d="M38 65h6v2h-6Zm0 0"/></clipPath><clipPath id="ah"><path d="M43.543 68.164s-8.875.258-9.25-.914c-.379-1.172 8.344-2.715 9.258-2.676.918.04 2.258 1.594 2.258 1.594a6.585 6.585 0 0 0-2.266 1.996Zm0 0"/></clipPath><clipPath id="aG"><path d="M39 65h3v2h-3Zm0 0"/></clipPath><clipPath id="aH"><path d="M43.543 68.164s-8.875.258-9.25-.914c-.379-1.172 8.344-2.715 9.258-2.676.918.04 2.258 1.594 2.258 1.594a6.585 6.585 0 0 0-2.266 1.996Zm0 0"/></clipPath><clipPath id="ag"><path d="M38 64h6v3h-6Zm0 0"/></clipPath><clipPath id="ae"><path d="M43.543 68.164s-8.875.258-9.25-.914c-.379-1.172 8.344-2.715 9.258-2.676.918.04 2.258 1.594 2.258 1.594a6.585 6.585 0 0 0-2.266 1.996Zm0 0"/></clipPath><clipPath id="aK"><path d="M40 65h2v2h-2Zm0 0"/></clipPath><clipPath id="aL"><path d="M43.543 68.164s-8.875.258-9.25-.914c-.379-1.172 8.344-2.715 9.258-2.676.918.04 2.258 1.594 2.258 1.594a6.585 6.585 0 0 0-2.266 1.996Zm0 0"/></clipPath><clipPath id="ad"><path d="M38 64h6v4h-6Zm0 0"/></clipPath><clipPath id="aw"><path d="M39 65h4v2h-4Zm0 0"/></clipPath><clipPath id="Z"><path d="M37 64h7v4h-7Zm0 0"/></clipPath><clipPath id="P"><path d="M43.543 68.164s-8.875.258-9.25-.914c-.379-1.172 8.344-2.715 9.258-2.676.918.04 2.258 1.594 2.258 1.594a6.585 6.585 0 0 0-2.266 1.996Zm0 0"/></clipPath><clipPath id="O"><path d="M37 64h8v4h-8Zm0 0"/></clipPath><clipPath id="M"><path d="M43.543 68.164s-8.875.258-9.25-.914c-.379-1.172 8.344-2.715 9.258-2.676.918.04 2.258 1.594 2.258 1.594a6.585 6.585 0 0 0-2.266 1.996Zm0 0"/></clipPath><clipPath id="L"><path d="M36 64h9v4h-9Zm0 0"/></clipPath><clipPath id="B"><path d="M43.543 68.164s-8.875.258-9.25-.914c-.379-1.172 8.344-2.715 9.258-2.676.918.04 2.258 1.594 2.258 1.594a6.585 6.585 0 0 0-2.266 1.996Zm0 0"/></clipPath><clipPath id="A"><path d="M36 64h10v4H36Zm0 0"/></clipPath><clipPath id="t"><path d="M43.543 68.164s-8.875.258-9.25-.914c-.379-1.172 8.344-2.715 9.258-2.676.918.04 2.258 1.594 2.258 1.594a6.585 6.585 0 0 0-2.266 1.996Zm0 0"/></clipPath><clipPath id="s"><path d="M35 64h11v4H35Zm0 0"/></clipPath><clipPath id="n"><path d="M43.543 68.164s-8.875.258-9.25-.914c-.379-1.172 8.344-2.715 9.258-2.676.918.04 2.258 1.594 2.258 1.594a6.585 6.585 0 0 0-2.266 1.996Zm0 0"/></clipPath><clipPath id="m"><path d="M35 64h11v5H35Zm0 0"/></clipPath><clipPath id="c"><path d="M43.543 68.164s-8.875.258-9.25-.914c-.379-1.172 8.344-2.715 9.258-2.676.918.04 2.258 1.594 2.258 1.594a6.585 6.585 0 0 0-2.266 1.996Zm0 0"/></clipPath><clipPath id="aa"><path d="M43.543 68.164s-8.875.258-9.25-.914c-.379-1.172 8.344-2.715 9.258-2.676.918.04 2.258 1.594 2.258 1.594a6.585 6.585 0 0 0-2.266 1.996Zm0 0"/></clipPath></defs><path style="stroke:none;fill-rule:nonzero;fill:#e5e5e5;fill-opacity:1" d="M21.578 53.195c-.469-7.656-1.082-15.511-.816-23.258.215-6.273 1.324-12.953 6.386-17.226 9.47-7.992 28.41-5.293 31.47 7.879 1.089 4.71 1.202 9.937 1.273 14.758.078 5.273-.29 10.566-1.262 15.757-.246 1.32-.535 2.665-1.215 3.825-.594 1.02-1.465 1.851-2.398 2.57-2.141 1.633-4.641 2.719-7.004 4-2.27 1.227-4.461 2.66-6.938 3.379-2.89.844-5.988.652-8.945.086-2.633-.504-5.32-1.36-7.242-3.23-2.242-2.176-3.117-5.422-3.309-8.54Zm0 0"/><path style="stroke:none;fill-rule:nonzero;fill:#989898;fill-opacity:1" d="M47.5 9.348c.633 1.144.598 2.535.477 3.84a34.552 34.552 0 0 1-4.024 13.19c-.086.161 1.402 1.548 1.535 1.7 2.09 2.445 3.219 5.485 4.696 8.3 1.136 2.161 2.273 4.337 3.093 6.642.016-.727.301-1.329.59-2l1.942-4.477a67.026 67.026 0 0 0-5.25-10.074s3.363-8.848 3.25-13.496Zm0 0"/><path style="stroke:none;fill-rule:nonzero;fill:#d0cfd0;fill-opacity:1" d="M59.66 38.8s4.188 9.095 3.176 17.47c-.969 8.027-2.543 11.41-20.328 21.222a4.935 4.935 0 0 1-4.762 0c-17.781-9.812-19.36-13.195-20.328-21.226-1.012-8.371 3.176-17.465 3.176-17.465s-.227 6.86 8.422 13.41l5.152-4.453 5.96 4.191 5.743-4.191 5.066 4.015s7.489-3.238 8.723-12.972Zm0 0"/><path style="fill:none;stroke-width:25.504809;stroke-linecap:butt;stroke-linejoin:miter;stroke:#e3e4e3;stroke-opacity:1;stroke-miterlimit:10" d="M422.95 745.703s76.61-87.207 154.1 0" transform="scale(.08)"/><path style="stroke:none;fill-rule:nonzero;fill:#989898;fill-opacity:1" d="M31.172 27.715a17.94 17.94 0 0 0-1.453 11.898c.3 1.34.75 2.637 1.336 3.875a12.089 12.089 0 0 1-1.856-3.738 14.257 14.257 0 0 1 .063-8.324 12.09 12.09 0 0 1 1.91-3.711Zm0 0"/><path style="stroke:none;fill-rule:evenodd;fill:#d0cfd0;fill-opacity:1" d="M36 36.48c-.066 1.106-10.078 1.883-10.96 1.754-.88-.129-1.813-4-.337-3.964 2.11.05 11.363 1.496 11.297 2.21Zm8.258 0c.066 1.106 10.078 1.883 10.957 1.754.883-.129 1.816-4 .34-3.964-2.114.05-11.367 1.496-11.301 2.21Zm0 0"/><path style="stroke:none;fill-rule:evenodd;fill:#111;fill-opacity:1" d="M63.34 53.797s-.516 4.61-.926 5.719c-.41 1.113-5.644 3.992-9.172 5.363-3.527 1.371-7.828 1.266-9.156 1.348-1.324.078-.543 1.933-.543 1.933s5.152-.43 11.39-2.75c6.239-2.32 8.153-4.074 8.989-5.36.836-1.284 1.555-8.929 1.555-8.929Zm0 0"/><path style="stroke:none;fill-rule:evenodd;fill:url(#a)" d="M43.543 68.164s-8.875.258-9.25-.914c-.379-1.172 8.344-2.715 9.258-2.676.918.04 2.258 1.594 2.258 1.594a6.585 6.585 0 0 0-2.266 1.996Zm0 0"/><g clip-path="url(#b)"><g clip-path="url(#c)" clip-rule="evenodd"><path style="stroke:none;fill-rule:nonzero;fill:url(#d)" d="m33.313 67.992 1.96-6.262L46.13 65.13l-1.957 6.262Zm0 0"/><path style="stroke:none;fill-rule:evenodd;fill:url(#e)" d="m46.281 65.055-.465 1.492.047.016c-1.125.605-2.734 1.152-4.558 1.5-3.653.699-6.793.335-7.012-.81-.215-1.14 2.566-2.632 6.219-3.331a20.27 20.27 0 0 1 2.61-.328l-.138.43Zm0 0"/><path style="stroke:none;fill-rule:evenodd;fill:url(#f)" d="m46.281 65.055-.093.312-.18.57.523.16c-.238.169-.484.321-.738.454-1.11.594-2.695 1.136-4.496 1.476-3.602.688-6.695.332-6.91-.793-.215-1.129 2.531-2.597 6.133-3.285.847-.164 1.703-.27 2.566-.32l-.121.387Zm0 0"/><path style="stroke:none;fill-rule:evenodd;fill:url(#g)" d="m46.281 65.055-.105.34.8.25c-.28.304-.71.609-1.253.902-1.094.586-2.657 1.121-4.43 1.457-3.547.676-6.594.324-6.809-.785-.21-1.11 2.493-2.559 6.04-3.239.835-.16 1.683-.265 2.53-.316l-.109.344Zm0 0"/><path style="stroke:none;fill-rule:evenodd;fill:url(#h)" d="m46.281 65.055-.113.37.719.227c-.274.297-.7.598-1.235.887-1.078.578-2.617 1.102-4.363 1.434-3.496.668-6.496.32-6.707-.774-.207-1.09 2.457-2.52 5.95-3.187a19.838 19.838 0 0 1 2.491-.313l-.093.305Zm0 0"/><path style="stroke:none;fill-rule:evenodd;fill:url(#i)" d="m46.281 65.055-.125.402.637.2c-.27.292-.688.59-1.219.87-1.058.57-2.574 1.086-4.297 1.414-3.437.657-6.398.32-6.601-.761-.203-1.078 2.418-2.48 5.86-3.14a19.136 19.136 0 0 1 2.452-.31l-.078.266Zm0 0"/><path style="stroke:none;fill-rule:evenodd;fill:url(#j)" d="m46.281 65.055-.133.433.555.172c-.266.29-.676.582-1.2.863-1.042.559-2.538 1.067-4.23 1.391-3.39.645-6.3.309-6.503-.75-.204-1.059 2.382-2.445 5.77-3.09 1.694-.32 3.269-.402 4.444-.27l-.242.77Zm0 0"/><path style="stroke:none;fill-rule:evenodd;fill:url(#k)" d="M46.945 64.84c.102.523-.484 1.12-1.511 1.676-1.032.554-2.5 1.05-4.168 1.367-3.332.64-6.2.308-6.399-.738-.199-1.043 2.344-2.407 5.68-3.04 1.668-.32 3.219-.394 4.375-.261l-.223.718 1.586.5Zm0 0"/><path style="stroke:none;fill-rule:evenodd;fill:url(#l)" d="M46.852 64.86c.097.511-.48 1.105-1.493 1.644-1.011.543-2.457 1.035-4.097 1.348-3.282.628-6.102.304-6.297-.723-.2-1.027 2.305-2.371 5.586-2.996 1.64-.313 3.168-.39 4.308-.258l-.21.668 1.632.512Zm0 0"/></g></g><g clip-path="url(#m)"><g clip-path="url(#n)" clip-rule="evenodd"><path style="stroke:none;fill-rule:evenodd;fill:url(#o)" d="M46.754 64.879c.098.508-.473 1.09-1.465 1.621-.996.535-2.418 1.02-4.031 1.328-3.23.613-6.004.297-6.2-.715-.19-1.011 2.27-2.336 5.5-2.953 1.618-.308 3.118-.383 4.243-.254l-.196.621 1.68.528Zm0 0"/><path style="stroke:none;fill-rule:evenodd;fill:url(#p)" d="M46.66 64.895c.188.996-2.234 2.293-5.41 2.898s-5.906.293-6.094-.703c-.191-.992 2.23-2.29 5.403-2.899 1.59-.3 3.066-.375 4.168-.25l-.18.57 1.73.544Zm0 0"/><path style="stroke:none;fill-rule:evenodd;fill:url(#q)" d="M46.559 64.914c.187.977-2.192 2.254-5.317 2.848-3.12.597-5.808.289-5.992-.692-.188-.976 2.191-2.25 5.316-2.847 1.563-.297 3.012-.371 4.098-.246l-.16.523 1.777.559Zm0 0"/><path style="stroke:none;fill-rule:evenodd;fill:url(#r)" d="M46.465 64.93c.187.96-2.16 2.218-5.227 2.8-3.066.586-5.707.282-5.89-.675-.184-.961 2.16-2.22 5.226-2.801 1.535-.293 2.961-.363 4.028-.242l-.145.468 1.824.57Zm0 0"/></g></g><g clip-path="url(#s)"><g clip-path="url(#t)" clip-rule="evenodd"><path style="stroke:none;fill-rule:evenodd;fill:url(#u)" d="M46.371 64.95c.18.945-2.121 2.179-5.137 2.753-3.02.574-5.609.277-5.793-.664-.183-.937 2.118-2.176 5.137-2.754 1.508-.285 2.91-.355 3.957-.238l-.129.422 1.875.586Zm0 0"/><path style="stroke:none;fill-rule:evenodd;fill:url(#v)" d="M46.273 64.969c.18.926-2.078 2.136-5.046 2.703-2.97.566-5.512.273-5.688-.652-.18-.93 2.078-2.141 5.047-2.707 1.48-.282 2.86-.352 3.89-.235l-.117.375 1.891.59Zm0 0"/><path style="stroke:none;fill-rule:evenodd;fill:url(#w)" d="M46.18 64.988c.172.91-2.047 2.098-4.961 2.657-2.914.554-5.414.265-5.586-.641-.176-.906 2.043-2.102 4.96-2.656 1.454-.278 2.81-.348 3.817-.23l-.097.32 1.855.582Zm0 0"/><path style="stroke:none;fill-rule:nonzero;fill:url(#x)" d="M46.086 65.004c-.172-.899-2.629-1.18-5.484-.633-2.86.543-5.04 1.711-4.868 2.61.172.894 2.625 1.175 5.485.628 2.86-.543 5.039-1.71 4.867-2.605Zm0 0"/><path style="stroke:none;fill-rule:nonzero;fill:url(#y)" d="M45.988 65.02c-.168-.88-2.578-1.157-5.383-.622-2.804.54-4.945 1.684-4.777 2.563.168.879 2.578 1.156 5.387.621 2.805-.535 4.941-1.684 4.773-2.562Zm0 0"/><path style="stroke:none;fill-rule:nonzero;fill:url(#z)" d="M45.895 65.04c-.165-.864-2.532-1.134-5.282-.61-2.754.527-4.851 1.652-4.687 2.511.164.864 2.527 1.133 5.281.61 2.754-.528 4.852-1.653 4.688-2.512Zm0 0"/></g></g><g clip-path="url(#A)"><g clip-path="url(#B)" clip-rule="evenodd"><path style="stroke:none;fill-rule:nonzero;fill:url(#C)" d="M45.797 65.059c-.16-.848-2.48-1.114-5.18-.598-2.699.516-4.758 1.617-4.597 2.465.164.844 2.48 1.11 5.183.594 2.7-.516 4.758-1.618 4.594-2.461Zm0 0"/><path style="stroke:none;fill-rule:nonzero;fill:url(#D)" d="M45.703 65.074c-.16-.828-2.433-1.09-5.078-.582-2.648.504-4.668 1.586-4.508 2.414.156.828 2.434 1.09 5.078.586 2.649-.508 4.664-1.59 4.508-2.418Zm0 0"/><path style="stroke:none;fill-rule:nonzero;fill:url(#E)" d="M45.605 65.094c-.152-.813-2.382-1.07-4.976-.574-2.594.496-4.57 1.554-4.418 2.367.156.812 2.387 1.07 4.98.574 2.594-.496 4.57-1.555 4.414-2.367Zm0 0"/><path style="stroke:none;fill-rule:nonzero;fill:url(#F)" d="M45.512 65.113c-.153-.797-2.336-1.047-4.88-.562-2.538.484-4.476 1.523-4.323 2.316.152.797 2.336 1.047 4.875.563 2.543-.485 4.48-1.524 4.328-2.317Zm0 0"/><path style="stroke:none;fill-rule:nonzero;fill:url(#G)" d="M45.414 65.129c-.148-.777-2.285-1.024-4.773-.55-2.489.476-4.383 1.491-4.235 2.273.149.777 2.285 1.023 4.774.55 2.488-.476 4.383-1.492 4.234-2.273Zm0 0"/><path style="stroke:none;fill-rule:evenodd;fill:url(#H)" d="M45.316 65.152c.145.762-1.71 1.758-4.144 2.22-2.438.464-4.531.226-4.676-.536-.144-.766 1.711-1.762 4.149-2.223 2.433-.46 4.527-.222 4.671.54Zm0 0"/><path style="stroke:none;fill-rule:nonzero;fill:url(#I)" d="M45.223 65.168c-.141-.746-2.188-.98-4.57-.527-2.383.453-4.2 1.43-4.055 2.171.14.747 2.187.985 4.57.528 2.383-.453 4.2-1.426 4.055-2.172Zm0 0"/><path style="stroke:none;fill-rule:evenodd;fill:url(#J)" d="M45.125 65.188c.14.73-1.637 1.68-3.965 2.124-2.332.446-4.332.215-4.472-.515-.137-.73 1.636-1.68 3.968-2.125 2.328-.445 4.328-.215 4.469.516Zm0 0"/><path style="stroke:none;fill-rule:nonzero;fill:url(#K)" d="M45.031 65.203c-.136-.715-2.09-.937-4.367-.504-2.277.434-4.012 1.364-3.875 2.078.133.711 2.09.938 4.367.504 2.278-.437 4.012-1.367 3.875-2.078Zm0 0"/></g></g><g clip-path="url(#L)"><g clip-path="url(#M)" clip-rule="evenodd"><path style="stroke:none;fill-rule:nonzero;fill:url(#N)" d="M44.938 65.223c-.133-.696-2.043-.918-4.27-.493-2.223.426-3.918 1.332-3.785 2.028.133.699 2.043.918 4.265.492 2.227-.422 3.922-1.332 3.79-2.027Zm0 0"/></g></g><g clip-path="url(#O)"><g clip-path="url(#P)" clip-rule="evenodd"><path style="stroke:none;fill-rule:nonzero;fill:url(#Q)" d="M44.902 64.98c-.132-.675-1.996-.886-4.16-.464-2.168.418-3.816 1.308-3.683 1.984.129.68 1.992.887 4.156.469 2.168-.422 3.816-1.309 3.687-1.989Zm0 0"/><path style="stroke:none;fill-rule:nonzero;fill:url(#R)" d="M44.746 65.258c-.129-.664-1.95-.871-4.066-.469-2.117.406-3.73 1.27-3.606 1.934.13.664 1.946.87 4.067.468 2.117-.406 3.73-1.27 3.605-1.933Zm0 0"/><path style="stroke:none;fill-rule:nonzero;fill:url(#S)" d="M44.648 65.277c-.125-.648-1.898-.851-3.96-.457-2.067.395-3.641 1.239-3.516 1.883.121.649 1.894.852 3.96.457 2.067-.394 3.641-1.238 3.516-1.883Zm0 0"/><path style="stroke:none;fill-rule:nonzero;fill:url(#T)" d="M44.55 65.293c-.116-.629-1.847-.828-3.859-.441-2.011.382-3.546 1.203-3.425 1.835.12.63 1.851.829 3.863.442 2.012-.383 3.543-1.203 3.422-1.836Zm0 0"/><path style="stroke:none;fill-rule:nonzero;fill:url(#U)" d="M44.457 65.313c-.117-.614-1.8-.805-3.758-.434-1.96.375-3.453 1.176-3.336 1.789.117.613 1.801.809 3.758.434 1.961-.375 3.453-1.176 3.336-1.79Zm0 0"/><path style="stroke:none;fill-rule:nonzero;fill:url(#V)" d="M44.36 65.332c-.114-.598-1.75-.785-3.657-.422-1.906.363-3.36 1.14-3.246 1.738.117.598 1.754.786 3.66.422 1.906-.363 3.36-1.14 3.242-1.738Zm0 0"/><path style="stroke:none;fill-rule:nonzero;fill:url(#W)" d="M44.266 65.352c-.11-.582-1.703-.766-3.555-.41-1.856.351-3.266 1.109-3.156 1.69.11.579 1.703.763 3.554.407 1.856-.352 3.266-1.11 3.157-1.687Zm0 0"/><path style="stroke:none;fill-rule:evenodd;fill:url(#X)" d="M44.164 65.371c.11.559-1.262 1.297-3.062 1.64-1.801.344-3.348.169-3.454-.398-.109-.566 1.262-1.3 3.063-1.644 1.8-.34 3.348-.16 3.453.402Zm0 0"/><path style="stroke:none;fill-rule:evenodd;fill:url(#Y)" d="M44.07 65.39c.106.547-1.226 1.258-2.972 1.594-1.75.332-3.25.16-3.356-.386-.105-.547 1.227-1.262 2.977-1.594 1.75-.336 3.246-.16 3.351.387Zm0 0"/></g></g><g clip-path="url(#Z)"><g clip-path="url(#aa)" clip-rule="evenodd"><path style="stroke:none;fill-rule:evenodd;fill:url(#ab)" d="M43.973 65.406c.101.531-1.188 1.223-2.88 1.547-1.687.324-3.148.16-3.25-.375-.1-.535 1.188-1.219 2.876-1.547 1.691-.324 3.152-.152 3.254.375Zm0 0"/><path style="stroke:none;fill-rule:evenodd;fill:url(#ac)" d="M43.879 65.426c.098.511-1.152 1.183-2.793 1.496-1.645.316-3.055.152-3.152-.363-.098-.512 1.156-1.184 2.796-1.496 1.641-.313 3.051-.153 3.149.363Zm0 0"/></g></g><g clip-path="url(#ad)"><g clip-path="url(#ae)" clip-rule="evenodd"><path style="stroke:none;fill-rule:evenodd;fill:url(#af)" d="M43.781 65.445c.098.496-1.113 1.145-2.703 1.45-1.59.3-2.953.144-3.047-.352-.093-.5 1.114-1.148 2.703-1.45 1.59-.304 2.953-.148 3.047.352Zm0 0"/></g></g><g clip-path="url(#ag)"><g clip-path="url(#ah)" clip-rule="evenodd"><path style="stroke:none;fill-rule:nonzero;fill:url(#ai)" d="M43.754 65.203c-.094-.48-1.41-.625-2.941-.328-1.536.297-2.7.926-2.606 1.406.09.477 1.41.625 2.941.328 1.532-.296 2.696-.925 2.606-1.406Zm0 0"/></g></g><g clip-path="url(#aj)"><g clip-path="url(#ak)" clip-rule="evenodd"><path style="stroke:none;fill-rule:nonzero;fill:url(#al)" d="M43.594 65.477c-.09-.461-1.364-.61-2.844-.325-1.484.282-2.613.887-2.523 1.352.086.465 1.359.61 2.843.328 1.48-.285 2.614-.89 2.524-1.355Zm0 0"/><path style="stroke:none;fill-rule:nonzero;fill:url(#am)" d="M43.5 65.496c-.086-.45-1.316-.59-2.746-.316-1.43.273-2.52.855-2.434 1.304.086.446 1.317.59 2.742.317 1.43-.274 2.52-.86 2.438-1.305Zm0 0"/><path style="stroke:none;fill-rule:nonzero;fill:url(#an)" d="M43.402 65.516c-.082-.434-1.265-.57-2.64-.305-1.38.262-2.426.824-2.344 1.254.082.433 1.266.566 2.64.305 1.376-.262 2.426-.825 2.344-1.254Zm0 0"/><path style="stroke:none;fill-rule:evenodd;fill:url(#ao)" d="M43.305 65.535c.078.414-.93.957-2.254 1.207-1.324.254-2.461.121-2.54-.293-.081-.414.93-.953 2.25-1.207 1.325-.254 2.462-.12 2.544.293Zm0 0"/><path style="stroke:none;fill-rule:evenodd;fill:url(#ap)" d="M43.207 65.555c.074.398-.89.914-2.16 1.156-1.27.246-2.36.117-2.438-.277-.074-.399.891-.918 2.16-1.16 1.27-.243 2.364-.118 2.438.28Zm0 0"/><path style="stroke:none;fill-rule:nonzero;fill:url(#aq)" d="M43.113 65.57c-.07-.382-1.117-.504-2.336-.27-1.218.231-2.144.731-2.074 1.11.074.383 1.121.5 2.34.27 1.215-.235 2.145-.73 2.07-1.11Zm0 0"/><path style="stroke:none;fill-rule:nonzero;fill:url(#ar)" d="M43.02 65.586c-.07-.363-1.07-.48-2.235-.258-1.168.223-2.055.7-1.984 1.063.07.367 1.07.48 2.234.257 1.164-.222 2.055-.695 1.985-1.062Zm0 0"/></g></g><g clip-path="url(#as)"><g clip-path="url(#at)" clip-rule="evenodd"><path style="stroke:none;fill-rule:evenodd;fill:url(#au)" d="M42.922 65.61c.066.347-.785.8-1.895 1.015-1.113.21-2.066.102-2.132-.25-.067-.348.78-.797 1.89-1.012 1.113-.215 2.07-.101 2.137.246Zm0 0"/><path style="stroke:none;fill-rule:evenodd;fill:url(#av)" d="M42.824 65.625c.063.332-.746.766-1.8.969-1.06.203-1.97.097-2.036-.235-.062-.332.746-.765 1.805-.964 1.059-.204 1.969-.098 2.031.23Zm0 0"/></g></g><g clip-path="url(#aw)"><g clip-path="url(#ax)" clip-rule="evenodd"><path style="stroke:none;fill-rule:evenodd;fill:url(#ay)" d="M42.727 65.645c.062.316-.704.726-1.711.918-1.008.195-1.871.093-1.93-.223-.059-.317.707-.727 1.71-.918 1.009-.192 1.872-.09 1.93.223Zm0 0"/><path style="stroke:none;fill-rule:evenodd;fill:url(#az)" d="M42.633 65.664c.054.297-.672.688-1.625.867-.95.184-1.77.09-1.828-.207-.055-.3.672-.691 1.625-.87.953-.184 1.77-.09 1.828.21Zm0 0"/><path style="stroke:none;fill-rule:evenodd;fill:url(#aA)" d="M42.535 65.68c.055.28-.633.648-1.531.82-.899.172-1.672.082-1.727-.2-.054-.277.633-.648 1.532-.82.902-.171 1.671-.082 1.726.2Zm0 0"/><path style="stroke:none;fill-rule:evenodd;fill:url(#aB)" d="M42.441 65.7c.051.265-.597.612-1.441.773-.844.16-1.574.082-1.625-.188-.05-.265.594-.61 1.441-.773.844-.16 1.575-.078 1.625.187Zm0 0"/><path style="stroke:none;fill-rule:evenodd;fill:url(#aC)" d="M42.344 65.719c.047.25-.559.574-1.352.719-.793.148-1.476.074-1.52-.176-.042-.246.56-.57 1.352-.723.793-.152 1.473-.07 1.52.18Zm0 0"/><path style="stroke:none;fill-rule:evenodd;fill:url(#aD)" d="M42.25 65.738c.043.23-.523.532-1.262.676-.742.14-1.379.066-1.422-.16-.046-.23.52-.535 1.262-.676.738-.144 1.375-.074 1.422.16Zm0 0"/><path style="stroke:none;fill-rule:evenodd;fill:url(#aE)" d="M42.152 65.754c.043.215-.48.496-1.172.629-.69.129-1.28.062-1.32-.153-.039-.214.48-.496 1.172-.628.691-.133 1.281-.063 1.32.152Zm0 0"/><path style="stroke:none;fill-rule:evenodd;fill:url(#aF)" d="M42.059 65.773c.035.2-.45.457-1.082.579-.637.12-1.184.058-1.22-.141-.038-.2.446-.457 1.083-.578.633-.121 1.18-.059 1.219.14Zm0 0"/></g></g><g clip-path="url(#aG)"><g clip-path="url(#aH)" clip-rule="evenodd"><path style="stroke:none;fill-rule:evenodd;fill:url(#aI)" d="M41.96 65.793c.036.18-.41.418-.991.531-.582.11-1.082.051-1.121-.129-.035-.183.41-.422.992-.53.586-.114 1.086-.056 1.12.128Zm0 0"/><path style="stroke:none;fill-rule:evenodd;fill:url(#aJ)" d="M41.867 65.809c.031.168-.375.382-.902.48-.531.098-.985.05-1.016-.117-.035-.164.371-.383.899-.48.53-.098.984-.047 1.02.117Zm0 0"/></g></g><g clip-path="url(#aK)"><g clip-path="url(#aL)" clip-rule="evenodd"><path style="stroke:none;fill-rule:evenodd;fill:url(#aM)" d="M41.77 65.828c.027.149-.336.344-.813.434-.477.09-.883.043-.914-.106-.027-.148.336-.344.812-.433.477-.09.887-.043.915.105Zm0 0"/><path style="stroke:none;fill-rule:evenodd;fill:url(#aN)" d="M41.672 65.848c.027.132-.297.304-.719.386-.422.079-.789.04-.812-.093-.024-.133.297-.309.718-.387.422-.082.79-.04.813.094Zm0 0"/><path style="stroke:none;fill-rule:evenodd;fill:url(#aO)" d="M41.578 65.863c.024.117-.262.27-.633.34-.367.07-.687.035-.71-.082-.02-.113.261-.266.632-.336.371-.074.688-.035.711.078Zm0 0"/><path style="stroke:none;fill-rule:evenodd;fill:url(#aP)" d="M41.48 65.883c.02.097-.222.23-.539.289-.316.062-.59.031-.609-.07-.02-.098.223-.227.54-.29.32-.058.593-.03.608.07Zm0 0"/><path style="stroke:none;fill-rule:evenodd;fill:url(#aQ)" d="M41.387 65.902c.015.078-.188.192-.453.239-.262.05-.493.027-.508-.059-.016-.082.187-.187.453-.238.266-.051.492-.024.508.058Zm0 0"/><path style="stroke:none;fill-rule:evenodd;fill:url(#aR)" d="M41.29 65.922c.015.066-.15.152-.36.191-.211.043-.395.02-.407-.047-.011-.066.149-.152.36-.191.215-.043.398-.02.406.047Zm0 0"/><path style="stroke:none;fill-rule:evenodd;fill:url(#aS)" d="M41.195 65.938c.008.05-.113.117-.27.144-.16.031-.296.016-.304-.035-.012-.047.11-.113.27-.145.156-.03.293-.015.304.035Zm0 0"/><path style="stroke:none;fill-rule:evenodd;fill:url(#aT)" d="M41.098 65.957c.007.031-.075.078-.18.098-.105.015-.195.007-.203-.024-.008-.035.074-.082.18-.097.105-.02.199-.012.203.023Zm0 0"/><path style="stroke:none;fill-rule:evenodd;fill:url(#aU)" d="M41.004 65.973c0 .02-.04.039-.09.05-.055.008-.102.004-.102-.011-.003-.016.036-.04.09-.051.051-.008.098-.004.102.012Zm0 0"/></g></g><path style="stroke:none;fill-rule:evenodd;fill:#111;fill-opacity:1" d="M13.957 58.664a1.58 1.58 0 0 1-.793.5c-.668.164-1.383-.195-1.82-.73-.438-.536-.649-1.215-.824-1.88-1.13-4.242-1.247-8.663-1.192-13.027.05-4.21-.148-8.336.559-12.52 1.367-8.062 6.57-16.839 10.273-19.827 3.703-2.992 12.027-6.371 20.414-6.633 8.387-.258 18.856 3.84 23.797 11.312 3.317 5.02 5.86 10.512 6.692 16.512.457 3.297.48 6.64.32 9.957-.149 3.113-.281 6.324-1.074 9.352l-.164.601c-.403 1.383-1.118 2.899-2.504 3.29-.18.058-.371.07-.559.034-.727-.175-.738-1.199-.598-1.933.614-3.242.852-6.543.715-9.84-.125-2.95-.094-5.91-.422-8.86-1.039-9.425-2.601-13.327-9.554-18.398-6.957-5.07-15.668-5.332-19.313-5.07-3.64.262-11.765 2.797-15.597 5.851-3.833 3.055-7.868 4.68-8.583 17.88-.378 6.976.207 13.734.782 20.675.054.64.093 1.293-.086 1.91a2.275 2.275 0 0 1-.469.844Zm0 0"/><path style="stroke:none;fill-rule:evenodd;fill:#111;fill-opacity:1" d="M70.02 55.434c-.106 3.476-2.188 7.476-4.399 8.117-2.215.64-2.23-2.938-2.512-5.516-.28-2.574-.668-17.086.188-18.472.86-1.391 2.742-1.126 4.91 4.187 2.164 5.313 1.813 11.684 1.813 11.684Zm0 0"/><path style="stroke:none;fill-rule:evenodd;fill:url(#aV)" d="M68.328 61.047c-.77 1.27-1.726 2.219-2.707 2.504-2.21.64-2.23-2.938-2.512-5.516-.277-2.574-.668-17.086.192-18.472.265-.43.629-.704 1.07-.715-1.035 5.066.34 20.894.656 22.46.211 1.032 1.953.399 3.301-.261Zm0 0"/><path style="stroke:none;fill-rule:evenodd;fill:url(#aW)" d="M70.07 55.434c-.02.562-.086 1.117-.191 1.668a12.943 12.943 0 0 1-.457 1.707.047.047 0 0 1-.027.027.038.038 0 0 1-.036.004.085.085 0 0 1-.02-.012c-.534-.516-1.198-1.164-1.734-1.695-.386-.39-.707-.719-.843-.883-.328-.387-.946-6.57-.75-10.664.047-.973.136-1.824.289-2.461.152-.648.37-1.07.672-1.164.16-.05.347-.004.547.148.007.004.011.012.015.016.117.242.238.496.36.77.12.265.242.546.359.835 2.164 5.31 1.816 11.653 1.816 11.704Zm0 0"/><path style="stroke:none;fill-rule:evenodd;fill:#111;fill-opacity:1" d="M10.996 57.41c-.46-2.988-.375-9.676 2.14-14.043 2.52-4.367 4.126-4.293 4.727-3.008.606 1.286.801 20.95-.078 22.703-.883 1.758-3.59.723-4.515-.37-.926-1.09-2.055-3.88-2.274-5.282Zm0 0"/><path style="stroke:none;fill-rule:evenodd;fill:url(#aX)" d="M17.04 39.613c.366.082.64.36.823.746.606 1.286.801 20.95-.082 22.703-.879 1.758-3.586.723-4.511-.37a7.296 7.296 0 0 1-.825-1.29c1.336.625 3.575 1.465 4.301.52.942-1.219.582-17.867.293-22.309Zm0 0"/><path style="stroke:none;fill-rule:evenodd;fill:url(#aY)" d="M10.945 57.418c-.265-1.73-.351-4.703.114-7.746.34-2.219.968-4.477 2.035-6.332.254-.442.5-.84.738-1.2.246-.37.488-.695.711-.98.02-.023.05-.023.074-.008.008.008.016.02.02.032.125.777.277 1.968.379 3.558.07 1.156.113 2.52.097 4.09-.066 5.766-.816 7.32-.816 7.324l-.008.012c-.066.105-1.445 2.152-2.687 3.273-.024.02-.055.02-.075 0l-.011-.023c-.141-.379-.262-.754-.36-1.094a7.256 7.256 0 0 1-.21-.906Zm0 0"/><path style="stroke:none;fill-rule:evenodd;fill:url(#aZ)" d="M9.793 29.871s-.555-4.746 1.656-9.621 5.98-5.625 5.98-5.625-2 8.887-2.046 9.95c-.047 1.058-4.52 5.882-5.59 5.296Zm0 0"/><path style="stroke:none;fill-rule:evenodd;fill:url(#ba)" d="M64.047 15.762s2.016-1.008 4.746 4.972c2.73 5.98 1.926 9.61 1.926 9.61s-5.621-5.133-6.242-5.664c-.622-.532-.137-6.282-.43-8.918Zm0 0"/><path style="stroke:none;fill-rule:evenodd;fill:#212121;fill-opacity:1" d="M61.184 12.129s1.011-.106 2.117 1c1.105 1.105 1.691 2.894 1.886 4.422.192 1.527.063 6.273.485 7.054.426.782 2.535 1.364 3.64 2.47 1.11 1.105 1.63 1.886 1.954 2.827.324.946-.106 3.23-.106 3.23s-.676-3.034-2.984-4.3c-2.309-1.27-3.512-2.145-4.516-3.61-1.008-1.46.488-7.214-2.476-13.093ZM19.54 11.727a25.97 25.97 0 0 0-2.173 6.02c-.781 3.444-.715 6.398-1.43 8.288-.714 1.89-3.09 3.512-4.457 5.235a15.55 15.55 0 0 0-2.046 3.418 6.548 6.548 0 0 1-.063-3.778c.582-2.047 4.649-6.043 5.168-7.215.52-1.172.356-11.441 5-11.968Zm0 0"/></svg>