<svg xmlns="http://www.w3.org/2000/svg" width="80" height="80"><defs><linearGradient id="a" gradientUnits="userSpaceOnUse" x1="218.49" y1="505.01" x2="561.35" y2="505.01" gradientTransform="scale(.08)"><stop offset="0" style="stop-color:#abc834;stop-opacity:1"/><stop offset="1" style="stop-color:#47ae65;stop-opacity:1"/></linearGradient></defs><path style="stroke:none;fill-rule:nonzero;fill:#c6c6c6;fill-opacity:1" d="M21.852 65.988c0-.015.293.02.816-.144.316-.106.613-.274.867-.496.348-.297.61-.68.762-1.114.2-.484.144-1.07.148-1.699.008-.633 0-1.32-.004-2.058 0-1.477-.007-3.157-.011-5.016-.004-1.856-.004-3.895-.008-6.078v-1.668c-.012-.563.05-1.145-.176-1.676a2.544 2.544 0 0 0-1.91-1.602c-.29-.062-.59-.042-.898-.046l-15.989.007c-.691 0-1.36.282-1.84.786a2.588 2.588 0 0 0-.718 1.84v4.078c0 2.675 0 5.253-.004 7.71v3.59c.015.582-.059 1.164.105 1.692a2.57 2.57 0 0 0 2.367 1.832c.524.011 1.04 0 1.551.008l2.914.004 8.801.023 2.395.012.62.007c.141 0 .212.008.212.008s-.07.008-.211.008l-.621.008-2.395.016-8.8.023-2.915.004c-.508 0-1.023.008-1.555 0a2.651 2.651 0 0 1-1.527-.543 2.705 2.705 0 0 1-.96-1.375 3.038 3.038 0 0 1-.114-.86v-4.457c0-2.457 0-5.039-.004-7.71v-4.079a2.752 2.752 0 0 1 .762-1.945 2.684 2.684 0 0 1 1.945-.824l15.984.004c.301.004.618-.016.926.05.301.06.594.172.86.329a2.685 2.685 0 0 1 1.32 2.226c.012.29 0 .57 0 .856v1.664c0 2.183-.004 4.219-.008 6.082l-.012 5.012c0 .738-.004 1.425-.004 2.058 0 .32 0 .617-.007.906a2.548 2.548 0 0 1-.16.817c-.16.437-.434.828-.79 1.129a2.67 2.67 0 0 1-1.5.602c-.144.003-.214 0-.214 0Zm0 0"/><path style="stroke:none;fill-rule:nonzero;fill:#e5e5e5;fill-opacity:1" d="M15.809 54.422h-.774l-1.691-2.356v-1.543s-1.2-.074-1.055 1.95c.145 2.023-.012 1.507-.012 1.507s-2.539.008-2.75.23c-.156.161-.226 2.685-.25 4.052-.015.691.41 1.332 1.051 1.492.086.023.18.039.27.039.636 0 3.87-.516 3.87-.516h1.34ZM18.023 53.996l-.476 5.297h-1.324v-5.188Zm0 0"/><path style="stroke:none;fill-rule:nonzero;fill:#c6c6c6;fill-opacity:1" d="M25.281 22.145c.207-.016.41-.047.617-.09a2.724 2.724 0 0 0 2.028-2.075c.047-.242.066-.484.062-.73v-.797c0-1.11-.008-2.371-.011-3.762l-.012-4.558v-1.25c-.004-.426.023-.856-.094-1.266a2.678 2.678 0 0 0-1.723-1.84c-.425-.16-.886-.144-1.359-.144H14.195a2.678 2.678 0 0 0-2.644 2.297c-.028.254-.04.504-.031.758v9.996c.007.437-.032.87.058 1.273a2.671 2.671 0 0 0 2.496 2.121c.754.016 1.489.008 2.184.012l6.601.023 1.797.016.465.008c.106 0 .16.008.16.008s-.054.007-.16.007l-.465.008-1.797.016-6.601.023c-.695 0-1.422.012-2.188 0a2.792 2.792 0 0 1-2.09-1.07c-.265-.34-.449-.73-.539-1.152-.093-.43-.054-.864-.062-1.297v-2.696c0-1.84 0-3.777-.008-5.78v-1.52c-.016-.5.024-1.059.254-1.54a2.834 2.834 0 0 1 2.574-1.664h10.586c.461 0 .957-.015 1.402.157A2.823 2.823 0 0 1 28 7.582c.125.438.094.879.098 1.297.004.422 0 .844 0 1.25 0 1.64-.008 3.164-.008 4.562-.004 1.395-.012 2.653-.016 3.758v.801c.004.254-.02.504-.074.75-.098.43-.297.828-.574 1.168-.39.465-.926.793-1.52.922a2.33 2.33 0 0 1-.465.058l-.16-.003Zm0 0"/><path style="stroke:none;fill-rule:nonzero;fill:#d0cfd0;fill-opacity:1" d="m21.18 8.156-4.594 6.477h3.344l-2.266 4.918 5.223-6.895-3.149.063ZM69.496 59.008c-.344-1.52-1.789-2.82-3.336-2.668-.914.09-1.738.656-2.297 1.383-.199.25-.379.511-.539.785a6.658 6.658 0 0 0-.539-.785c-.558-.727-1.379-1.293-2.297-1.383-1.547-.153-2.988 1.152-3.332 2.668-.347 1.52.227 3.129 1.164 4.37.934 1.243 2.492 2.837 5.133 3.442 1.738-.402 3.942-2.199 4.879-3.441.941-1.242 1.508-2.852 1.164-4.371Zm0 0"/><path style="stroke:none;fill-rule:nonzero;fill:#fff;fill-opacity:1" d="M69.21 61.824a1.157 1.157 0 0 1-.202.016l-.578.015-2.125.024.05-.04c-.187.688-.406 1.493-.644 2.376l-.055.207-.074-.203-1.246-3.578c-.137-.395-.27-.786-.402-1.164l.132.011-1.39 2.371-.02.032h-.039l-3.738-.028-1.059-.02-.28-.007a.417.417 0 0 1-.099-.012.417.417 0 0 1 .098-.011l.281-.008 1.059-.02 3.738-.023-.054.031 1.378-2.379.079-.133.05.149.407 1.164c.441 1.281.863 2.496 1.238 3.582h-.13c.25-.88.481-1.68.673-2.367l.012-.04h.039l2.129.024.574.012c.066 0 .133.008.199.02Zm0 0"/><path style="stroke:none;fill-rule:nonzero;fill:#d0cfd0;fill-opacity:1" d="M73.988 74.5c-.004-.023.371.04.989-.227a2.425 2.425 0 0 0 1.293-1.464c.085-.286.12-.582.109-.88l-.02-10.769c0-2.273-.004-4.765-.007-7.441v-2.04c0-.343.003-.695-.008-1.038a2.343 2.343 0 0 0-1.91-2.203c-.348-.067-.723-.036-1.094-.043h-1.117l-19.563.003a2.378 2.378 0 0 0-2.062 1.223 2.42 2.42 0 0 0-.29 1.2v6.261c0 3.273 0 6.426-.003 9.434v5.453c-.008.344.05.683.172 1 .257.625.765 1.11 1.398 1.336.309.105.633.152.96.136h6.442l10.77.024 2.926.012.761.007c.172 0 .262.008.262.008s-.09.004-.262.008l-.761.004-2.926.016-10.77.02-3.57.003h-2.871a2.71 2.71 0 0 1-1-.14 2.498 2.498 0 0 1-1.465-1.4 2.701 2.701 0 0 1-.184-1.038V50.813c-.011-.438.09-.868.293-1.254a2.505 2.505 0 0 1 2.18-1.293l19.559.007h1.12c.368.008.74-.027 1.114.043a2.471 2.471 0 0 1 2.008 2.32c.012.356 0 .7.004 1.048v2.039c0 2.672-.008 5.164-.008 7.441-.012 4.543-.016 8.223-.023 10.77a2.66 2.66 0 0 1-.118.894 2.43 2.43 0 0 1-2.066 1.668c-.172.004-.262.004-.262.004Zm0 0"/><path style="stroke:none;fill-rule:nonzero;fill:#454444;fill-opacity:1" d="M32.73 48.387s-9.195 1.328-13.09 5.953c-3.894 4.625.755 8.39.755 8.39s2.835 3.598 13.699 1.68c10.86-1.922 5.285-12.582 5.285-12.582s-1.879-4.582-6.649-3.441Zm0 0"/><path style="stroke:none;fill-rule:nonzero;fill:#212121;fill-opacity:1" d="M45.738 8.672a22.478 22.478 0 0 1-.226 2.289 20.473 20.473 0 0 1-2.024 6.3c5.422 3.59 3.32 11.137 3.32 11.137s-3.195 13.54-4.046 16.954c-.848 3.41-2.453 3.574-2.453 3.574l-7.094 2.543s-4.55 2.386-2.547 6.664c2.004 4.277 6.121 3.14 6.121 3.14l3.574-1.3s1.407-.38 2.817 1.082c2 2.082 5.578 3.36 5.578 3.36l5.578 1.573c2.598.813 3.777-2.77 3.777-2.77l7.094-30.206c4.906-20.157-14.426-23.75-19.469-24.34Zm0 0"/><path style="stroke:none;fill-rule:nonzero;fill:url(#a)" d="M25.89 56.363c-2.624-7.113-2.98-15.36-2.023-22.468 1.531-11.372 10.38-16.032 10.38-16.032s5.019-2.804 8.48-.941a19.848 19.848 0 0 0 1.953-6.098 21.42 21.42 0 0 0 .226-2.289c-.426-.039-.668-.055-.668-.055-11.246-.57-21.258 8.375-24.66 18.524-2.777 8.3-2.617 17.621-.566 26.062 1.613 6.625 4.918 14.09 10.254 18.63 2.16 1.726 5.593-.227 4.511-3.051-.398-1.047-1.25-1.84-2.027-2.641-2.617-2.73-4.527-6.04-5.86-9.64Zm0 0"/></svg>