<svg xmlns="http://www.w3.org/2000/svg" xmlns:xlink="http://www.w3.org/1999/xlink" width="80" height="80"><defs><linearGradient id="c" gradientUnits="userSpaceOnUse" x1="383.02" y1="520.23" x2="723.23" y2="135.08" gradientTransform="scale(.08)"><stop offset="0" style="stop-color:#abc834;stop-opacity:1"/><stop offset="1" style="stop-color:#47ae65;stop-opacity:1"/></linearGradient><linearGradient id="d" gradientUnits="userSpaceOnUse" x1="383.02" y1="825.62" x2="723.23" y2="440.48" gradientTransform="scale(.08)"><stop offset="0" style="stop-color:#abc834;stop-opacity:1"/><stop offset="1" style="stop-color:#47ae65;stop-opacity:1"/></linearGradient><linearGradient id="e" gradientUnits="userSpaceOnUse" x1="445.18" y1="132.81" x2="559.37" y2="132.81" gradientTransform="scale(.08)"><stop offset="0" style="stop-color:#abc834;stop-opacity:1"/><stop offset="1" style="stop-color:#47ae65;stop-opacity:1"/></linearGradient><clipPath id="b"><path d="M0 0h80v80H0z"/></clipPath><filter id="a" filterUnits="objectBoundingBox" x="0%" y="0%" width="100%" height="100%"><feColorMatrix in="SourceGraphic" values="0 0 0 0 1 0 0 0 0 1 0 0 0 0 1 0 0 0 1 0"/></filter><mask id="g"><g filter="url(#a)"><path style="fill:#000;fill-opacity:.2;stroke:none" d="M0 0h80v80H0z"/></g></mask><g id="f" clip-path="url(#b)"><path style="stroke:none;fill-rule:nonzero;fill:#000;fill-opacity:1" d="M24.602 32.668c-12.07 3.953-12.18 12.027-9.457 17.777.683 1.164 2.761 1.79 4.57-5.36l-3.172.407 3.695-1.875.961-2.87-3.078.23 3.91-1.645c1.438-4.36 2.57-6.664 2.57-6.664Zm0 0"/></g></defs><path style="stroke:none;fill-rule:nonzero;fill:#777;fill-opacity:1" d="M50.023 3.746h23.07v38.191h-23.07Zm0 0"/><path style="stroke:none;fill-rule:nonzero;fill:#c6c5c5;fill-opacity:1" d="M49.254 3.746h23.074v38.191H49.254Zm0 0"/><path style="stroke:none;fill-rule:nonzero;fill:#eee;fill-opacity:1" d="M50.238 4.523h21.106v36.641H50.238Zm0 0"/><path style="stroke:none;fill-rule:nonzero;fill:#c6c5c5;fill-opacity:1" d="M54.258 9.285h12.976v27.117H54.258Zm0 0"/><path style="stroke:none;fill-rule:nonzero;fill:#777;fill-opacity:1" d="M54.258 26.805c-.031-2.532 2.246-5.004 4.754-5.36 1.199-.168 2.468.07 3.586-.386 1.996-.82 2.629-3.47 4.64-4.258l.09 19.601h-13.07Zm0 0"/><path style="stroke:none;fill-rule:nonzero;fill:#111;fill-opacity:1" d="M25.148 67.906c.774 2.574 3.278 4.375 6.079 4.375H49.91c2.809 0 5.309-1.8 6.082-4.37.406-1.345.61-2.74.61-4.141V17.508c0-.598-.082-1.195-.25-1.774l-.668-2.32a6.398 6.398 0 0 0-6.149-4.625H31.66a6.395 6.395 0 0 0-6.148 4.621l-.73 2.527a6.356 6.356 0 0 0-.25 1.774v46.008c0 1.418.206 2.828.616 4.187Zm0 0"/><path style="stroke:none;fill-rule:nonzero;fill:#111;fill-opacity:1" d="M54.14 71.64a7.2 7.2 0 0 1-4.23 1.356H31.23A7.218 7.218 0 0 1 27 71.641a6.814 6.814 0 0 1-1.852-1.989l.301 1.04a6.399 6.399 0 0 0 6.153 4.628h17.875a6.402 6.402 0 0 0 6.148-4.625l.246-.847a6.87 6.87 0 0 1-1.73 1.793Zm0 0"/><path style="stroke:none;fill-rule:nonzero;fill:url(#c)" d="M40.566 40.875c-5.793-.008-10.484-4.703-10.492-10.496 0-5.785 4.707-10.492 10.492-10.492 5.79 0 10.496 4.707 10.496 10.492 0 5.789-4.707 10.496-10.496 10.496Zm0-18.02a7.525 7.525 0 0 0-7.523 7.528 7.52 7.52 0 0 0 7.527 7.523 7.523 7.523 0 0 0 7.524-7.527 7.533 7.533 0 0 0-7.528-7.524Zm0 0"/><path style="stroke:none;fill-rule:nonzero;fill:url(#d)" d="M40.566 65.305c-5.793-.004-10.484-4.7-10.492-10.493 0-5.785 4.707-10.492 10.492-10.492 5.79 0 10.496 4.707 10.496 10.492 0 5.786-4.707 10.493-10.496 10.493Zm0-18.02a7.525 7.525 0 0 0-7.523 7.528 7.525 7.525 0 1 0 15.05 0 7.536 7.536 0 0 0-7.527-7.528Zm0 0"/><path style="stroke:none;fill-rule:nonzero;fill:url(#e)" d="M36.184 9.977h7.996c.316 0 .57.253.57.566v.16c0 .317-.254.57-.57.57h-7.996a.568.568 0 0 1-.57-.57v-.16c0-.313.253-.566.57-.566Zm0 0"/><path style="stroke:none;fill-rule:nonzero;fill:#b66eab;fill-opacity:1" d="M24.602 32.668c-12.07 3.953-12.18 12.027-9.457 17.777.683 1.164 2.761 1.79 4.57-5.36l-3.172.407 3.695-1.875.961-2.87-3.078.23 3.91-1.645c1.438-4.36 2.57-6.664 2.57-6.664Zm0 0"/><use xlink:href="#f" mask="url(#g)"/><path style="stroke:none;fill-rule:nonzero;fill:#777;fill-opacity:1" d="M25.84 32.367c-.27-1.07-1.016-2.031-2.059-2.363-3.687-1.18-6.91 3.746-8.32 6.43-2.23 4.254-2.84 9.742-.32 14.011.687 1.164 2.765 1.79 4.57-5.36l-3.168.407 3.695-1.875.961-2.87c-.058.175-2.855.21-3.078.226 1.777-.13 3.89-1.66 5.168-2.801 1.461-1.297 2.8-3.117 2.656-5.176a3.468 3.468 0 0 0-.105-.629Zm0 0"/><path style="stroke:none;fill-rule:nonzero;fill:#fff;fill-opacity:1" d="M21.188 34.688c-6.364 4.832-6.942 10.37-5.141 16.152-.637-5.094-1.328-10.238 5.14-16.153Zm0 0"/><path style="stroke:none;fill-rule:nonzero;fill:#c6c5c5;fill-opacity:1" d="M3.898 40.504c.77-.399 1.797-.48 2.672-.293 6.543 1.41 11.762 9.168 9.352 15.644-.445 1.2-2.277 2.125-5.149-4.234l3.02-.148-3.754-1.13-1.367-2.511 2.906-.3c-1.457.148-3.691-.544-5.055-1.012-1.656-.57-3.43-1.868-3.757-3.704-.207-1.144.328-1.898 1.132-2.312Zm0 0"/><path style="stroke:none;fill-rule:nonzero;fill:#fff;fill-opacity:1" d="M7.672 42.184c6.73 3.441 8.187 8.504 7.473 14.187-.254-4.844-.47-9.754-7.473-14.187Zm0 0"/><path style="stroke:none;fill-rule:nonzero;fill:#c6c5c5;fill-opacity:1" d="M28.773 43.668a2.442 2.442 0 0 0-.289-1.11c-.566-1.054-1.879-1.542-3.07-1.425-1.191.117-2.277.734-3.246 1.433-3.938 2.84-7.574 8.196-6.363 13.305.27 1.133 1.816 2.172 5.117-3.238l-2.707-.473 3.508-.597 1.52-2.114-2.587-.594c2.383.547 5.492-.945 7.086-2.644.637-.68 1.059-1.633 1.031-2.543Zm0 0"/><path style="stroke:none;fill-rule:nonzero;fill:#fff;fill-opacity:1" d="M24.77 44.473c-6.454 2.347-8.332 6.75-8.32 11.953.769-4.34 1.51-8.742 8.32-11.953Zm0 0"/><path style="stroke:none;fill-rule:nonzero;fill:#777;fill-opacity:1" d="M19.242 63.3h-6.18c-.624 0-1.144-.48-1.19-1.1l-.481-6.36a.311.311 0 0 1 .086-.242.31.31 0 0 1 .234-.102h8.824c.09 0 .172.035.235.102.062.062.09.152.085.238l-.421 6.352a1.195 1.195 0 0 1-1.192 1.113Zm0 0"/><path style="stroke:none;fill-rule:nonzero;fill:#c6c5c5;fill-opacity:1" d="M10.805 63.125h10.422a.72.72 0 0 1 0 1.441H10.805a.72.72 0 0 1-.72-.718c0-.399.325-.723.72-.723Zm0 0"/><path style="stroke:none;fill-rule:nonzero;fill:#c6c5c5;fill-opacity:1" d="m12.605 64.309-.613 10.558a.417.417 0 0 0 .117.317.425.425 0 0 0 .73-.223l1.657-10.563a.44.44 0 0 0-.094-.343.439.439 0 0 0-.328-.149h-1.043a.425.425 0 0 0-.426.403ZM19.7 63.906h-1.04a.43.43 0 0 0-.324.149.42.42 0 0 0-.098.343l1.657 10.559a.428.428 0 0 0 .734.23.438.438 0 0 0 .113-.32l-.61-10.558a.43.43 0 0 0-.433-.403Zm0 0"/><path style="stroke:none;fill-rule:nonzero;fill:#c6c5c5;fill-opacity:1" d="M10.168 63.906c0-.031 2.637-.054 5.89-.054 3.25 0 5.887.023 5.887.054"/></svg>