<svg xmlns="http://www.w3.org/2000/svg" width="150" height="175"><defs><clipPath id="a"><path data-name="Rectangle 1" d="M0 0h150v175H0z"/></clipPath></defs><g data-name="Group 1" clip-path="url(#a)"><g data-name="New Enamad" transform="translate(0 -.012)" clip-path="url(#a)"><g data-name="Group 4" transform="translate(0 -.005)"><rect data-name="Rectangle 2" width="150" height="175" rx="30" fill="#fff"/><g data-name="Group 3"><path d="M14.769 101.162a213.777 213.777 0 0 1 39.221-23.31c21.418-9.5 41.811-25.038 41.811-45.591S87.329 9.117 82.314 9.117c-6.907 0-26.969 8.222-33.343 43s7.769 52.292 19.698 52.989 16.729-2.017 24.166-17.552c7.032-5.26 13-6.741 14.6-14.305a3.493 3.493 0 0 0-3.122-4.115l-3.212-.407a10.115 10.115 0 0 1 6.912-4.854c4.643-.7 7.769-8.794 7.769-8.794s-16.448 3.248-26.275 26.763-28.776 12.087-30.383 2.59a81.725 81.725 0 0 1 7.816-56.487c10.812-18.828 33.178-4.111 10.812 22.444-21.875 21.786-61.091 29.888-62.983 50.773Zm105.154-43.618 4.115 6.867a2.67 2.67 0 0 0 4.111.617l6.209-5.471a2.756 2.756 0 0 0 .492-3.413l-4.108-6.741a2.67 2.67 0 0 0-4.115-.612l-6.2 5.547a2.71 2.71 0 0 0-.492 3.212Z" fill="#295697"/><text data-name="جهت‌اطمینان‌کلیک‌نمایید" transform="translate(36.654 163.916)" fill="#295697" font-size="8" font-family="SegoeUI-Bold, Segoe UI" font-weight="700"><tspan x="0" y="0">جهت‌اطمینان‌کلیک‌نمایید</tspan></text><text transform="translate(35 126.273)" fill="#0b0a0c" font-size="15" font-family="SegoeUI-Bold, Segoe UI" font-weight="700"><tspan x="0" y="0">eNAMAD.ir</tspan></text><g data-name="Group 2"><path data-name="Path 1" d="m30.869 135.427 2.026 5.079 5.66.279-4.408 3.419 1.472 5.253-4.75-2.967-4.75 2.967 1.473-5.253-4.408-3.419 5.66-.28Z" fill="#faed40"/><g data-name="Group 1"><path data-name="Path 2" d="M36.566 152.159a1.115 1.115 0 0 1-.608-.18l-4.883-3.179-4.883 3.178a1.115 1.115 0 0 1-1.685-1.227l1.513-5.626-4.53-3.659a1.115 1.115 0 0 1 .644-1.981l5.818-.3 2.082-5.441a1.115 1.115 0 0 1 2.083 0l2.082 5.441 5.818.3a1.115 1.115 0 0 1 .644 1.981l-4.531 3.662 1.514 5.626a1.115 1.115 0 0 1-1.077 1.4Zm-5.491-5.808a1.115 1.115 0 0 1 .608.18l3.048 1.984-.945-3.513a1.115 1.115 0 0 1 .376-1.157l2.829-2.286-3.633-.187a1.115 1.115 0 0 1-.984-.715l-1.3-3.4-1.3 3.4a1.115 1.115 0 0 1-.984.715l-3.633.187 2.831 2.292a1.115 1.115 0 0 1 .376 1.157l-.945 3.513 3.048-1.984a1.112 1.112 0 0 1 .608-.186Z" fill="#f79421"/></g><g data-name="star-svgrepo-com"><path data-name="Path 1" d="m52.845 135.427 2.03 5.086 5.666.28-4.411 3.422 1.474 5.258-4.755-2.97-4.755 2.97 1.474-5.258-4.413-3.423 5.666-.28Z" fill="#b3b2b3"/><g data-name="Group 1"><path data-name="Path 2" d="M58.529 152.159a1.115 1.115 0 0 1-.608-.18l-4.883-3.179-4.883 3.178a1.115 1.115 0 0 1-1.685-1.227l1.513-5.626-4.53-3.659a1.115 1.115 0 0 1 .644-1.981l5.818-.3 2.082-5.441a1.115 1.115 0 0 1 2.083 0l2.082 5.441 5.818.3a1.115 1.115 0 0 1 .644 1.981l-4.531 3.662 1.514 5.626a1.115 1.115 0 0 1-1.077 1.4Zm-5.491-5.808a1.115 1.115 0 0 1 .608.18l3.048 1.984-.945-3.513a1.115 1.115 0 0 1 .376-1.157l2.829-2.286-3.633-.187a1.115 1.115 0 0 1-.984-.715l-1.3-3.4-1.3 3.4a1.115 1.115 0 0 1-.984.715l-3.633.187 2.831 2.292a1.115 1.115 0 0 1 .376 1.157l-.945 3.513 3.048-1.984a1.112 1.112 0 0 1 .608-.186Z" fill="#b3b2b3"/></g></g><g data-name="star-svgrepo-com"><path data-name="Path 1" d="m96.771 135.427 2.03 5.086 5.666.28-4.411 3.422 1.474 5.258-4.755-2.97-4.755 2.97 1.474-5.258-4.413-3.423 5.666-.28Z" fill="#b3b2b3"/><g data-name="Group 1"><path data-name="Path 2" d="M102.455 152.159a1.115 1.115 0 0 1-.608-.18l-4.883-3.179-4.883 3.178a1.115 1.115 0 0 1-1.685-1.227l1.513-5.626-4.53-3.659a1.115 1.115 0 0 1 .644-1.981l5.818-.3 2.082-5.441a1.115 1.115 0 0 1 2.083 0l2.082 5.441 5.818.3a1.115 1.115 0 0 1 .644 1.981l-4.531 3.662 1.514 5.626a1.115 1.115 0 0 1-1.077 1.4Zm-5.491-5.808a1.115 1.115 0 0 1 .608.18l3.048 1.984-.945-3.513a1.115 1.115 0 0 1 .376-1.157l2.829-2.286-3.633-.187a1.115 1.115 0 0 1-.984-.715l-1.3-3.4-1.3 3.4a1.115 1.115 0 0 1-.984.715l-3.633.187 2.831 2.292a1.115 1.115 0 0 1 .376 1.157l-.945 3.513 3.048-1.984a1.112 1.112 0 0 1 .608-.186Z" fill="#b3b2b3"/></g></g><g data-name="star-svgrepo-com"><path data-name="Path 1" d="m74.808 135.427 2.03 5.086 5.666.28-4.411 3.422 1.474 5.258-4.755-2.97-4.755 2.97 1.474-5.258-4.413-3.423 5.666-.28Z" fill="#b3b2b3"/><g data-name="Group 1"><path data-name="Path 2" d="M80.492 152.159a1.115 1.115 0 0 1-.608-.18l-4.883-3.179-4.883 3.178a1.115 1.115 0 0 1-1.685-1.227l1.513-5.626-4.53-3.659a1.115 1.115 0 0 1 .644-1.981l5.818-.3 2.082-5.441a1.115 1.115 0 0 1 2.083 0l2.082 5.441 5.818.3a1.115 1.115 0 0 1 .644 1.981l-4.531 3.662 1.514 5.626a1.115 1.115 0 0 1-1.077 1.4Zm-5.491-5.808a1.115 1.115 0 0 1 .608.18l3.048 1.984-.945-3.513a1.115 1.115 0 0 1 .376-1.157l2.829-2.286-3.633-.187a1.115 1.115 0 0 1-.984-.715l-1.3-3.4-1.3 3.4a1.115 1.115 0 0 1-.984.715l-3.633.187 2.831 2.292a1.115 1.115 0 0 1 .376 1.157l-.945 3.513 3.048-1.984a1.112 1.112 0 0 1 .608-.186Z" fill="#b3b2b3"/></g></g><g data-name="star-svgrepo-com"><path data-name="Path 1" d="m118.734 135.427 2.03 5.086 5.666.28-4.411 3.422 1.474 5.258-4.755-2.97-4.755 2.97 1.474-5.258-4.413-3.423 5.666-.28Z" fill="#b3b2b3"/><g data-name="Group 1"><path data-name="Path 2" d="M124.418 152.159a1.115 1.115 0 0 1-.608-.18l-4.883-3.179-4.883 3.178a1.115 1.115 0 0 1-1.685-1.227l1.513-5.626-4.53-3.659a1.115 1.115 0 0 1 .644-1.981l5.818-.3 2.082-5.441a1.115 1.115 0 0 1 2.083 0l2.082 5.441 5.818.3a1.115 1.115 0 0 1 .644 1.981l-4.531 3.662 1.514 5.626a1.115 1.115 0 0 1-1.077 1.4Zm-5.491-5.808a1.115 1.115 0 0 1 .608.18l3.048 1.984-.945-3.513a1.115 1.115 0 0 1 .376-1.157l2.829-2.286-3.633-.187a1.115 1.115 0 0 1-.984-.715l-1.3-3.4-1.3 3.4a1.115 1.115 0 0 1-.984.715l-3.633.187 2.831 2.292a1.115 1.115 0 0 1 .376 1.157l-.945 3.513 3.048-1.984a1.112 1.112 0 0 1 .608-.186Z" fill="#b3b2b3"/></g></g></g></g></g></g></g></svg>